<?xml version="1.0" standalone="no"?>
<!DOCTYPE svg PUBLIC "-//W3C//DTD SVG 1.1//EN" "http://www.w3.org/Graphics/SVG/1.1/DTD/svg11.dtd" >
<svg xmlns="http://www.w3.org/2000/svg" xmlns:xlink="http://www.w3.org/1999/xlink" version="1.1">
<metadata></metadata>
<defs>
<font id="rf_dewiregular" horiz-adv-x="1460" >
<font-face units-per-em="2048" ascent="1638" descent="-410" />
<missing-glyph horiz-adv-x="489" />
<glyph horiz-adv-x="0" />
<glyph unicode="&#xd;" horiz-adv-x="681" />
<glyph unicode=" "  horiz-adv-x="489" />
<glyph unicode="&#x09;" horiz-adv-x="489" />
<glyph unicode="&#xa0;" horiz-adv-x="489" />
<glyph unicode="!" horiz-adv-x="573" d="M182 0v236h209v-236h-209zM190 1434h193l-23 -1016h-147z" />
<glyph unicode="&#x22;" horiz-adv-x="677" d="M115 1434h157l-14 -473h-129zM406 1434h157l-14 -473h-129z" />
<glyph unicode="#" horiz-adv-x="1185" d="M39 418v114h244l41 371h-228v115h240l45 391h149l-43 -391h281l45 391h150l-45 -391h229v-115h-242l-41 -371h226v-114h-238l-47 -422h-150l47 422h-282l-47 -422h-150l47 422h-231zM432 532h283l41 371h-283z" />
<glyph unicode="$" horiz-adv-x="1189" d="M68 430l168 8q6 -139 82.5 -221t226.5 -96v522l-137 47q-293 94 -293 367q0 182 120.5 277.5t309.5 101.5v172h98v-176q182 -16 296 -123t128 -283l-170 -12q-6 111 -71.5 183.5t-182.5 90.5v-495l148 -50q160 -53 238.5 -143t78.5 -231q0 -186 -124 -284.5t-341 -109.5 v-172h-98v174q-225 12 -346 129t-131 324zM297 1069q0 -163 213 -233l35 -11v467q-117 -6 -182.5 -64.5t-65.5 -158.5zM643 119q125 8 204 66.5t79 172.5q0 84 -55.5 140.5t-182.5 97.5l-45 14v-491z" />
<glyph unicode="%" horiz-adv-x="1601" d="M63 1102q0 162 88.5 253t240 91t239.5 -91t88 -253t-88 -255t-239.5 -93t-240 93t-88.5 255zM195 1101.5q0 -112.5 51 -176t145 -63.5q90 0 143.5 63.5t53.5 176.5q0 111 -52.5 173t-144.5 62q-94 0 -145 -61.5t-51 -174zM252 0l973 1434h123l-971 -1434h-125zM883 334 q0 160 87 253t238 93q154 0 242 -93t88 -253t-88 -253t-242 -93q-152 0 -238.5 93t-86.5 253zM1012 333.5q0 -110.5 52 -175t144 -64.5t144.5 64.5t52.5 175t-52.5 175t-144.5 64.5t-144 -64.5t-52 -175z" />
<glyph unicode="&#x26;" horiz-adv-x="1288" d="M86 340q0 59 16.5 109.5t35 82t66.5 73.5t72.5 60.5t94.5 65.5l63 45l-16 23q-106 127 -147.5 206.5t-41.5 155.5q0 143 98.5 220t252.5 77q164 0 257 -85t93 -228q0 -98 -50.5 -175t-166.5 -157l-74 -53l309 -371q45 109 58 258h137q-20 -219 -101 -371l230 -276h-191 l-133 160q-147 -184 -416 -185q-219 0 -332.5 99.5t-113.5 265.5zM262 352q0 -109 71 -177.5t208 -68.5q209 0 321 160l-344 414l-72 -53q-98 -72 -141 -129.5t-43 -145.5zM395 1157q0 -63 35 -125t117 -162l10 -12l64 47q152 111 151 234q0 88 -53 140t-139 52 q-76 0 -130.5 -43t-54.5 -131z" />
<glyph unicode="'" horiz-adv-x="387" d="M115 1434h157l-14 -473h-129z" />
<glyph unicode="(" horiz-adv-x="641" d="M113 620.5q0 311.5 102 532.5t248 354h158q-338 -338 -338 -886.5t338 -886.5h-158q-145 133 -247.5 354t-102.5 532.5z" />
<glyph unicode=")" horiz-adv-x="641" d="M20 -266q338 338 338 886.5t-338 886.5h158q145 -133 247.5 -354t102.5 -532.5t-102 -532.5t-248 -354h-158z" />
<glyph unicode="*" horiz-adv-x="751" d="M41 973l111 63l157 68l-157 67l-111 64l53 92l111 -65l137 -101l-20 168v131h108v-131l-20 -168l135 101l112 65l54 -92l-111 -64l-158 -67l158 -68l111 -63l-54 -94l-112 65l-135 100l20 -167v-129h-108v129l20 167l-137 -100l-111 -65z" />
<glyph unicode="+" horiz-adv-x="1013" d="M117 618v125h327v318h125v-318h328v-125h-328v-317h-125v317h-327z" />
<glyph unicode="," horiz-adv-x="468" d="M131 -236v472h207v-144l-125 -328h-82z" />
<glyph unicode="-" horiz-adv-x="761" d="M117 541v139h528v-139h-528z" />
<glyph unicode="." horiz-adv-x="468" d="M131 0v236h207v-236h-207z" />
<glyph unicode="/" horiz-adv-x="790" d="M37 -117l518 1602h164l-518 -1602h-164z" />
<glyph unicode="0" horiz-adv-x="1251" d="M100 717q0 346 137.5 543.5t389.5 197.5q250 0 387 -197.5t137 -543.5t-137 -544t-387 -198q-252 0 -389.5 198t-137.5 544zM281 716.5q0 -278.5 91 -436t255 -157.5q162 0 253 157.5t91 436t-91.5 436.5t-252.5 158q-164 0 -255 -158t-91 -436.5z" />
<glyph unicode="1" horiz-adv-x="778" d="M70 1014v180l340 240h143v-1434h-180v1225z" />
<glyph unicode="2" horiz-adv-x="1071" d="M33 0v135l473 490q86 88 119.5 125.5t83 101t67 115t17.5 108.5q0 115 -70 175.5t-182 60.5q-129 0 -208 -89t-93 -272l-174 15q16 246 145 369.5t330 123.5q193 0 312.5 -100.5t119.5 -282.5q0 -127 -68.5 -240.5t-236.5 -281.5l-392 -406h732v-147h-975z" />
<glyph unicode="3" horiz-adv-x="1118" d="M41 403l174 13q16 -150 102 -221.5t222 -71.5q147 0 237 82t90 229q0 135 -82 217t-239 82q-94 0 -207 -24v127l438 450h-670v148h904v-134l-463 -444q239 6 364 -98q135 -106 135.5 -323.5t-141 -338.5t-366.5 -121q-209 0 -343.5 107.5t-154.5 320.5z" />
<glyph unicode="4" horiz-adv-x="1222" d="M51 336v135l598 963h295v-951h217v-147h-217v-336h-180v336h-713zM229 483h535v852z" />
<glyph unicode="5" horiz-adv-x="1136" d="M53 373l176 12q20 -127 111.5 -194.5t220.5 -67.5q139 0 230.5 89t91.5 257t-91.5 254t-228.5 86q-96 0 -181 -42t-134 -122l-160 12l59 777h842v-148h-704l-37 -491q135 151 364 151q203 0 328 -127t125 -350q0 -233 -139.5 -363.5t-364.5 -130.5q-203 0 -342 104.5 t-166 293.5z" />
<glyph unicode="6" horiz-adv-x="1214" d="M100 686q0 377 140.5 574.5t398.5 197.5q193 0 310.5 -106.5t133.5 -288.5l-174 -12q-10 117 -81.5 188.5t-188.5 71.5q-207 0 -297 -226q-57 -141 -59 -391q49 113 153.5 174.5t237.5 61.5q201 0 331 -127t130 -346q0 -225 -135.5 -353.5t-366.5 -128.5q-532 0 -533 711 zM313 457q0 -152 87 -243t232.5 -91t233.5 91t88 243q0 150 -88 240.5t-233.5 90.5t-232.5 -91t-87 -240z" />
<glyph unicode="7" horiz-adv-x="1087" d="M63 1286v148h969v-127q-410 -643 -551 -1307h-194q141 643 569 1286h-793z" />
<glyph unicode="8" horiz-adv-x="1200" d="M80 375q0 141 90 238.5t246 134.5q-143 33 -222 118.5t-79 220.5q0 178 138 274.5t347 96.5q211 0 349 -96t138 -275q0 -135 -77.5 -220.5t-218.5 -118.5q156 -37 242.5 -134.5t86.5 -238.5q0 -188 -147.5 -294t-372.5 -106t-372.5 105.5t-147.5 294.5zM256 395 q0 -131 96 -203.5t248 -72.5q154 0 249 72.5t95 203.5t-95 204t-249 73q-152 0 -248 -73t-96 -204zM291 1065q0 -123 85 -188.5t224 -65.5t224 65.5t85 188.5q0 121 -85 185.5t-224 64.5t-224 -64.5t-85 -185.5z" />
<glyph unicode="9" horiz-adv-x="1214" d="M78 983q0 221 136.5 348t363.5 127q537 0 536 -710q0 -381 -137 -577t-397 -196q-197 0 -315 105.5t-136 290.5l174 12q12 -117 84 -188.5t193 -71.5q203 0 294 229q57 150 58 398q-51 -113 -155.5 -173.5t-237.5 -60.5q-199 0 -330 126t-131 341zM260 983 q0 -145 88.5 -235.5t231.5 -90.5q145 0 233 90.5t88 235.5q0 147 -88 237.5t-233 90.5q-143 0 -231.5 -90.5t-88.5 -237.5z" />
<glyph unicode=":" horiz-adv-x="468" d="M131 0v236h207v-236h-207zM131 813v236h207v-236h-207z" />
<glyph unicode=";" horiz-adv-x="468" d="M131 -236v472h207v-144l-125 -328h-82zM131 813v236h207v-236h-207z" />
<glyph unicode="&#x3c;" horiz-adv-x="999" d="M109 594v168l735 342v-154l-611 -270l611 -248v-153z" />
<glyph unicode="=" horiz-adv-x="1021" d="M121 434v123h780v-123h-780zM121 778v125h780v-125h-780z" />
<glyph unicode="&#x3e;" horiz-adv-x="999" d="M158 279v153l608 248l-608 270v154l735 -342v-168z" />
<glyph unicode="?" horiz-adv-x="1024" d="M41 987q16 236 146 353.5t339 117.5q190 0 309 -92t119 -276q0 -121 -56 -210t-183 -188q-88 -68 -118 -111.5t-30 -125.5v-33h-174v39q0 121 37 184.5t131 132.5q104 80 157.5 147.5t53.5 161.5q0 111 -65.5 166.5t-180.5 55.5q-285 0 -315 -334zM375 0v236h209v-236 h-209z" />
<glyph unicode="@" horiz-adv-x="1777" d="M96 541q0 340 229.5 566t565.5 226q346 0 568 -219t222 -547q0 -207 -87 -319.5t-240 -112.5q-203 0 -258 176q-41 -94 -116 -144t-165 -50q-141 0 -234.5 114.5t-93.5 309.5q0 199 93.5 313.5t236.5 114.5q178 0 262 -170v149h140v-459q0 -129 37.5 -190t123.5 -61 q104 0 157.5 84t53.5 239q0 289 -198.5 489.5t-501.5 200.5q-293 0 -499 -206.5t-206 -503.5q0 -319 199 -516t526 -197q238 0 412 94l51 -72q-197 -104 -463 -104q-369 0 -592 216t-223 579zM627 541q0 -141 60.5 -227.5t164.5 -86.5t165.5 85t61.5 228.5t-61.5 229.5 t-165.5 86t-164.5 -86t-60.5 -229z" />
<glyph unicode="A" horiz-adv-x="1368" d="M39 0l502 1434h286l502 -1434h-194l-127 377h-652l-129 -377h-188zM406 520h550l-274 811z" />
<glyph unicode="B" horiz-adv-x="1357" d="M172 0v1434h604q205 0 329 -91.5t124 -267.5q0 -152 -98.5 -239t-284.5 -101q193 -12 307.5 -103t114.5 -255q0 -178 -132 -277.5t-352 -99.5h-612zM360 147h410q147 0 228 66t81 186.5t-78.5 189t-222.5 68.5h-418v-510zM360 801h412q125 0 196.5 65.5t71.5 180 t-74.5 177t-205.5 62.5h-400v-485z" />
<glyph unicode="C" horiz-adv-x="1361" d="M90 717q0 332 161 536.5t454 204.5q238 0 389 -128t180 -345l-178 -18q-20 154 -129 246t-262 92q-207 0 -316.5 -169t-109.5 -419q0 -256 115.5 -422t326.5 -166q164 0 266.5 101.5t122.5 258.5l178 -14q-27 -225 -173 -362.5t-394 -137.5q-303 0 -467 203t-164 539z " />
<glyph unicode="D" horiz-adv-x="1413" d="M172 0v1434h524q297 0 461 -189.5t164 -527.5t-164 -527.5t-461 -189.5h-524zM360 154h318q219 0 337 149.5t118 413.5t-118 413.5t-337 149.5h-318v-1126z" />
<glyph unicode="E" horiz-adv-x="1247" d="M172 0v1434h958v-150h-770v-483h611v-144h-611v-507h799v-150h-987z" />
<glyph unicode="F" horiz-adv-x="1181" d="M172 0v1434h932v-154h-744v-506h603v-151h-603v-623h-188z" />
<glyph unicode="G" horiz-adv-x="1388" d="M90 717q0 332 161 536.5t456 204.5q227 0 377.5 -119.5t185.5 -324.5l-178 -17q-29 139 -134.5 223.5t-250.5 84.5q-141 0 -240.5 -84t-143.5 -214t-44 -290q0 -256 126.5 -422t362.5 -166q184 0 352 84v385h-391v131h563v-618q-266 -135 -530 -136q-326 0 -499 204 t-173 538z" />
<glyph unicode="H" d="M172 0v1434h188v-627h740v627h188v-1434h-188v651h-740v-651h-188z" />
<glyph unicode="I" horiz-adv-x="534" d="M172 0v1434h188v-1434h-188z" />
<glyph unicode="J" horiz-adv-x="1155" d="M80 412v131h174v-129q0 -139 74.5 -212t197.5 -73t196 78t73 227v1000h188v-1012q0 -219 -121 -333t-332 -114q-215 0 -332.5 115t-117.5 322z" />
<glyph unicode="K" horiz-adv-x="1368" d="M172 0v1434h188v-635h228l475 635h217l-545 -697l586 -737h-225l-506 651h-230v-651h-188z" />
<glyph unicode="L" horiz-adv-x="1122" d="M172 0v1434h188v-1280h695v-154h-883z" />
<glyph unicode="M" horiz-adv-x="1853" d="M172 0v1434h330l426 -1328l426 1328h325v-1434h-182v1323l-442 -1323h-258l-443 1323v-1323h-182z" />
<glyph unicode="N" horiz-adv-x="1482" d="M172 0v1434h317l639 -1321v1321h183v-1434h-318l-639 1321v-1321h-182z" />
<glyph unicode="O" d="M90 717q0 332 167 536.5t472 204.5q307 0 474 -204.5t167 -536.5t-167 -537t-474 -205q-305 0 -472 205t-167 537zM279 717q0 -258 118.5 -423t331.5 -165q215 0 334 165t119 423t-119 423t-334 165q-213 0 -331.5 -165t-118.5 -423z" />
<glyph unicode="P" horiz-adv-x="1306" d="M172 0v1434h569q209 0 346.5 -106.5t137.5 -328.5q0 -219 -134.5 -322.5t-345.5 -103.5h-385v-573h-188zM360 719h361q145 0 230 69.5t85 211t-85 211t-230 69.5h-361v-561z" />
<glyph unicode="Q" d="M90 717q0 332 167 536.5t472 204.5q307 0 474 -204.5t167 -536.5q0 -207 -67.5 -370t-196.5 -257l139 -186l-123 -82l-147 196q-106 -43 -246 -43q-305 0 -472 205t-167 537zM279 717q0 -258 118.5 -423t331.5 -165q76 0 143 23l-110 149l123 82l116 -156 q180 158 181 490q0 258 -119 423t-334 165q-213 0 -331.5 -165t-118.5 -423z" />
<glyph unicode="R" horiz-adv-x="1353" d="M172 0v1434h586q209 0 346 -105.5t137 -320.5q0 -190 -107.5 -293t-283.5 -121l448 -594h-227l-420 590h-291v-590h-188zM360 733h377q145 0 230.5 69.5t85.5 205t-85 205t-231 69.5h-377v-549z" />
<glyph unicode="S" horiz-adv-x="1239" d="M68 440l176 6q6 -154 102 -237.5t283 -83.5q147 0 243.5 57.5t96.5 179.5q0 86 -57.5 141.5t-192.5 100.5l-295 94q-307 98 -307 375q0 193 135 289t342 96q223 0 364.5 -110.5t155.5 -307.5l-174 -12q-8 127 -98 204t-250 77q-135 0 -211 -58.5t-76 -165.5 q0 -166 225 -235l295 -94q168 -53 250 -143.5t82 -237.5q0 -199 -141.5 -299.5t-388.5 -100.5q-264 0 -406.5 120t-152.5 345z" />
<glyph unicode="T" horiz-adv-x="1187" d="M51 1280v154h1086v-154h-449v-1280h-188v1280h-449z" />
<glyph unicode="U" horiz-adv-x="1468" d="M172 539v895h188v-879q0 -217 93.5 -321.5t282 -104.5t280.5 103.5t92 322.5v879h188v-895q0 -285 -138 -424.5t-423 -139.5q-563 1 -563 564z" />
<glyph unicode="V" horiz-adv-x="1318" d="M43 1434h201l415 -1315l420 1315h197l-477 -1434h-281z" />
<glyph unicode="W" horiz-adv-x="1968" d="M53 1434h203l301 -1295l295 1295h270l291 -1295l305 1295h197l-361 -1434h-280l-289 1300l-295 -1300h-282z" />
<glyph unicode="X" horiz-adv-x="1331" d="M55 0l500 729l-463 705h221l351 -555l354 555h209l-459 -697l504 -737h-219l-394 588l-395 -588h-209z" />
<glyph unicode="Y" horiz-adv-x="1339" d="M35 1434h215l420 -693l428 693h209l-543 -842v-592h-189v590z" />
<glyph unicode="Z" horiz-adv-x="1179" d="M43 0v131l829 1149h-784v154h1016v-131l-830 -1149h850v-154h-1081z" />
<glyph unicode="[" horiz-adv-x="604" d="M180 -264v1755h365v-141h-201v-1475h201v-139h-365z" />
<glyph unicode="\" horiz-adv-x="790" d="M72 1485h164l516 -1602h-164z" />
<glyph unicode="]" horiz-adv-x="604" d="M57 -125h201v1475h-201v141h365v-1755h-365v139z" />
<glyph unicode="^" horiz-adv-x="790" d="M47 948l260 486h176l260 -486h-143l-205 416l-205 -416h-143z" />
<glyph unicode="_" horiz-adv-x="817" d="M29 -88h757v-121h-757v121z" />
<glyph unicode="`" horiz-adv-x="514" d="M82 1505h188l162 -293h-143z" />
<glyph unicode="a" horiz-adv-x="1134" d="M84 281q0 289 422 329l319 31v102q-1 100 -65 163q-63 61 -181 61h-8q-115 0 -188.5 -52.5t-79.5 -156.5h-166q6 174 125 257t309 83q211 0 322 -100.5t111 -288.5v-709h-164v221q-51 -117 -155.5 -181.5t-254.5 -64.5q-172 0 -259 85.5t-87 220.5zM262 287 q0 -80 55.5 -131.5t165.5 -51.5q158 0 250 99.5t92 257.5v65l-299 -30q-264 -25 -264 -209z" />
<glyph unicode="b" horiz-adv-x="1210" d="M141 0v1507h181v-635q53 106 147 166t215 60q201 0 323.5 -149.5t122.5 -412t-122.5 -412t-323.5 -149.5q-129 0 -227.5 68t-149.5 190v-233h-166zM311 536.5q0 -190.5 87 -305t234.5 -114.5t233.5 114.5t86 305t-86 305t-233.5 114.5t-234.5 -114.5t-87 -305z" />
<glyph unicode="c" horiz-adv-x="1110" d="M80 537q0 268 133 414.5t360 146.5q184 0 310.5 -98.5t150.5 -280.5l-172 -17q-20 125 -99 189.5t-190 64.5q-143 0 -229 -111.5t-86 -308t87 -308t233 -111.5q115 0 193.5 68.5t100.5 195.5l172 -14q-25 -186 -151.5 -289t-314.5 -103q-231 0 -364.5 146t-133.5 416z " />
<glyph unicode="d" horiz-adv-x="1210" d="M80 536.5q0 260.5 124 411t322 150.5q121 0 215.5 -59.5t147.5 -166.5v635h180v-1507h-166v233q-51 -123 -149.5 -190.5t-227.5 -67.5q-199 0 -322.5 150.5t-123.5 411zM258 536.5q0 -190.5 86 -305t233.5 -114.5t234.5 114.5t87 305t-87 305t-234.5 114.5t-233.5 -114.5 t-86 -305z" />
<glyph unicode="e" horiz-adv-x="1144" d="M80 537q0 274 138 417.5t368 143.5q236 0 359.5 -145.5t123.5 -442.5v-25h-809q10 -184 101.5 -281.5t238.5 -97.5q209 0 285 185l170 -10q-43 -143 -160 -224.5t-295 -81.5q-240 0 -380 143t-140 419zM262 604h629q-2 168 -85 265.5t-220 97.5q-135 0 -223.5 -93.5 t-100.5 -269.5z" />
<glyph unicode="f" horiz-adv-x="716" d="M41 936v137h201v158q0 172 70.5 236.5t230.5 64.5q78 0 145 -8v-138q-90 4 -108 5q-90 0 -124 -40t-34 -145v-133h242v-137h-242v-936h-180v936h-201z" />
<glyph unicode="g" horiz-adv-x="1202" d="M80 559q0 244 126 391.5t326 147.5q123 0 218.5 -60.5t144.5 -169.5v205h166v-995q0 -264 -113.5 -388t-357.5 -124q-203 0 -319.5 87t-123.5 261h166q6 -104 79 -157.5t198 -53.5q156 0 223.5 83t67.5 245v194q-109 -205 -349 -205q-201 0 -326.5 147.5t-125.5 391.5z M258 555q0 -178 88 -287.5t232 -109.5q145 0 233 109.5t88 287.5t-88 289.5t-233 111.5q-143 0 -231.5 -111.5t-88.5 -289.5z" />
<glyph unicode="h" horiz-adv-x="1187" d="M141 0v1507h181v-612q104 203 368 203q178 0 272.5 -97.5t94.5 -291.5v-709h-180v651q0 299 -248 299q-147 0 -227 -95t-80 -259v-596h-181z" />
<glyph unicode="i" horiz-adv-x="466" d="M139 1249v230h189v-230h-189zM143 0v1073h181v-1073h-181z" />
<glyph unicode="j" horiz-adv-x="466" d="M-66 -283q66 -4 82 -4q72 0 99.5 33t27.5 127v1200h181v-1247q0 -141 -56.5 -200.5t-191.5 -59.5q-48 0 -142 8v143zM139 1249v230h191v-230h-191z" />
<glyph unicode="k" horiz-adv-x="1116" d="M141 0v1507h181v-893h151l379 459h217l-467 -516l492 -557h-224l-401 473h-147v-473h-181z" />
<glyph unicode="l" horiz-adv-x="462" d="M141 0v1507h181v-1507h-181z" />
<glyph unicode="m" horiz-adv-x="1806" d="M141 0v1073h166v-203q45 109 135 168.5t215 59.5t209 -59.5t113 -174.5q45 113 137 173.5t219 60.5q158 0 249 -96.5t91 -276.5v-725h-180v678q0 129 -56.5 200.5t-164.5 71.5q-127 0 -202 -95t-75 -259v-596h-178v678q0 129 -57 200.5t-166 71.5q-127 0 -200.5 -94 t-73.5 -260v-596h-181z" />
<glyph unicode="n" horiz-adv-x="1187" d="M141 0v1073h166v-207q98 231 383 232q178 0 272.5 -97.5t94.5 -291.5v-709h-180v651q0 299 -248 299q-147 0 -227 -95t-80 -259v-596h-181z" />
<glyph unicode="o" horiz-adv-x="1173" d="M80 536.5q0 260.5 138 411t369.5 150.5t369 -150.5t137.5 -411t-137.5 -411t-369 -150.5t-369.5 150.5t-138 411zM258 536.5q0 -190.5 89 -305t241 -114.5q150 0 238.5 114.5t88.5 305t-89 305t-238 114.5q-152 0 -241 -114.5t-89 -305z" />
<glyph unicode="p" horiz-adv-x="1210" d="M141 -410v1483h166v-229q49 121 148.5 187.5t228.5 66.5q201 0 323.5 -149.5t122.5 -412t-122.5 -412t-323.5 -149.5q-121 0 -215 59.5t-147 170.5v-615h-181zM311 536.5q0 -190.5 87 -305t234.5 -114.5t233.5 114.5t86 305t-86 305t-233.5 114.5t-234.5 -114.5t-87 -305 z" />
<glyph unicode="q" horiz-adv-x="1210" d="M80 536.5q0 260.5 124 411t322 150.5q129 0 228.5 -66.5t148.5 -187.5v229h166v-1483h-180v615q-51 -111 -146.5 -170.5t-216.5 -59.5q-199 0 -322.5 150.5t-123.5 411zM258 536.5q0 -190.5 86 -305t233.5 -114.5t234.5 114.5t87 305t-87 305t-234.5 114.5t-233.5 -114.5 t-86 -305z" />
<glyph unicode="r" horiz-adv-x="815" d="M141 0l2 1073h164v-221q41 117 124 179.5t198 62.5q45 0 119 -13v-163q-68 12 -140 12q-145 0 -215.5 -94.5t-70.5 -290.5v-545h-181z" />
<glyph unicode="s" horiz-adv-x="1015" d="M51 305l164 8q20 -207 291 -207q123 0 194.5 43.5t71.5 122.5q0 59 -48 98.5t-159 73.5l-231 68q-250 74 -250 295q0 147 107.5 219t285.5 72q188 0 310 -79t137 -239l-164 -10q-12 98 -89 147.5t-194 49.5h-17q-86 0 -140 -38q-60 -42 -60 -116q0 -117 174 -168l234 -67 q282 -80 282 -295q0 -149 -118.5 -228.5t-329.5 -79.5q-424 0 -451 330z" />
<glyph unicode="t" horiz-adv-x="774" d="M37 936v133h172q66 0 65 64v176h168v-236h263v-137h-263v-627q0 -102 29 -140t109 -38q53 0 125 10v-143q-72 -14 -158 -14q-156 0 -220.5 67.5t-64.5 229.5v655h-225z" />
<glyph unicode="u" horiz-adv-x="1187" d="M131 379v694h178v-641q0 -309 250 -309q145 0 226 104.5t81 270.5v575h181v-1073h-166v221q-102 -246 -383 -246q-174 0 -270.5 102.5t-96.5 301.5z" />
<glyph unicode="v" horiz-adv-x="1105" d="M39 1073h194l320 -967l324 967h192l-383 -1073h-268z" />
<glyph unicode="w" horiz-adv-x="1734" d="M47 1073h201l260 -946l240 946h249l234 -930l260 930h195l-326 -1073h-252l-238 981l-241 -981h-258z" />
<glyph unicode="x" horiz-adv-x="1134" d="M47 0l412 541l-393 532h217l284 -405l285 405h209l-387 -526l416 -547h-220l-307 420l-307 -420h-209z" />
<glyph unicode="y" horiz-adv-x="1118" d="M39 1073h197l352 -1001l297 1001h192l-399 -1196q-55 -178 -131 -244.5t-230 -66.5q-51 0 -118 6v139q74 -4 108 -4q84 0 127 41t80 156l31 96h-101z" />
<glyph unicode="z" horiz-adv-x="983" d="M43 0v125l645 807h-604v141h831v-125l-643 -807h658v-141h-887z" />
<glyph unicode="{" horiz-adv-x="675" d="M76 551v125h16q182 0 182 250v239q0 178 82 252t240 74h22v-125h-16q-90 0 -131 -50t-41 -163v-248q0 -252 -205 -289v-8q205 -37 205 -286v-250q0 -113 41 -162t131 -49h16v-125h-22q-158 0 -240 72.5t-82 250.5v240q0 252 -182 252h-16z" />
<glyph unicode="|" horiz-adv-x="483" d="M172 -248v1755h137v-1755h-137z" />
<glyph unicode="}" horiz-adv-x="675" d="M57 -139h17q90 0 131 49t41 162v250q0 250 205 286v8q-205 37 -205 289v248q0 113 -41 163t-131 50h-17v125h23q158 0 239.5 -74t81.5 -252v-239q1 -250 183 -250h16v-125h-16q-182 0 -183 -252v-240q0 -178 -81.5 -250.5t-239.5 -72.5h-23v125z" />
<glyph unicode="~" horiz-adv-x="1144" d="M154 580q0 117 54 193.5t167 76.5q78 0 148.5 -43t129 -86t109.5 -43q55 0 85 41t30 104h114q0 -119 -53 -194.5t-168 -75.5q-78 0 -148.5 43t-129 86t-109.5 43q-55 0 -84 -41t-29 -104h-116z" />
<glyph unicode="&#xa2;" horiz-adv-x="1091" d="M80 537q0 254 117.5 399t320.5 160v153h92v-153q160 -12 269.5 -105.5t134.5 -257.5l-160 -14q-23 106 -87.5 168.5t-156.5 75.5v-852q96 10 164 75.5t90 178.5l162 -13q-27 -170 -138.5 -267t-277.5 -108v-153h-92v153q-203 16 -320.5 161t-117.5 399zM248 537 q0 -182 72.5 -294t197.5 -130v850q-123 -18 -196.5 -130t-73.5 -296z" />
<glyph unicode="&#xa3;" horiz-adv-x="1073" d="M39 0v129q199 203 199 406q0 57 -17 122h-158v107h134q-33 147 -33 244q0 207 112.5 316.5t309.5 109.5q379 0 407 -420l-172 -13q-18 285 -235 285q-113 0 -176.5 -76.5t-63.5 -220.5q0 -86 33 -225h399v-107h-375q14 -76 15 -131q0 -195 -213 -379h825v-147h-991z" />
<glyph unicode="&#xa5;" horiz-adv-x="1267" d="M35 1409h207l393 -631l399 631h199l-508 -768v-12h389v-99h-389v-137h389v-96h-389v-297h-182v297h-389v96h389v137h-389v99h389v14z" />
<glyph unicode="&#xa7;" horiz-adv-x="1028" d="M88 657q0 170 184 246q-145 86 -145 260q0 147 102.5 221t264.5 74q168 0 280.5 -82t128.5 -241l-155 -9q-12 102 -82 155.5t-172 53.5q-86 2 -143.5 -43t-57.5 -123q0 -129 168 -182l219 -67q270 -88 270 -295q0 -160 -180 -244q164 -86 164 -262q0 -147 -107.5 -228 t-294.5 -81q-184 0 -297.5 83.5t-125.5 253.5l153 7q10 -109 84 -165.5t186 -56.5q100 0 168 47.5t68 131.5q0 68 -45 109.5t-156 76.5l-231 72q-248 74 -248 288zM247.5 680q0.5 -131 182.5 -186l217 -66q143 49 144 172q0 66 -48.5 112t-156.5 81l-187 59 q-152 -41 -151.5 -172z" />
<glyph unicode="&#xa8;" horiz-adv-x="677" d="M82 1249v217h166v-217h-166zM432 1249v217h164v-217h-164z" />
<glyph unicode="&#xa9;" horiz-adv-x="1662" d="M90 717q0 334 209 537.5t532.5 203.5t532.5 -203.5t209 -537.5t-209 -538t-532.5 -204t-532.5 204t-209 538zM199 716.5q0 -278.5 177 -461.5t455.5 -183t456.5 184t178 460.5t-178 461t-456.5 184.5t-455.5 -183.5t-177 -462zM498 717q0 197 91 304t247 107 q125 0 212 -72.5t105 -205.5l-123 -10q-14 92 -67.5 139t-126.5 47q-94 0 -151.5 -82t-57.5 -227.5t58 -228t157 -82.5q76 0 128 51t66 145l125 -8q-18 -139 -104 -214t-215 -75q-160 0 -252 106.5t-92 305.5z" />
<glyph unicode="&#xab;" horiz-adv-x="927" d="M63 530v86l250 318h181l-291 -361l291 -360h-181zM410 530v86l252 318h178l-291 -361l291 -360h-178z" />
<glyph unicode="&#xad;" horiz-adv-x="761" d="M117 541v139h528v-139h-528z" />
<glyph unicode="&#xae;" horiz-adv-x="1171" d="M74 946q0 221 148.5 366.5t363.5 145.5t363.5 -145.5t148.5 -366.5t-148.5 -366.5t-363.5 -145.5t-363.5 145.5t-148.5 366.5zM154 946.5q0 -186.5 123.5 -312.5t308 -126t309.5 126t125 312.5t-125 312t-309.5 125.5t-308 -125.5t-123.5 -312zM436 688v529h182 q61 0 103.5 -40t42.5 -120q0 -139 -105 -154l121 -215h-96l-109 211h-61v-211h-78zM514 963h92q76 0 76 94q0 92 -74 92h-94v-186z" />
<glyph unicode="&#xb0;" horiz-adv-x="747" d="M59 1139q0 145 90.5 232t225.5 87t224 -87t89 -232q0 -143 -89 -230.5t-224 -87.5t-225.5 87t-90.5 231zM182 1139q0 -88 54.5 -145.5t138.5 -57.5q82 0 136 57.5t54 145.5q0 90 -54 147t-136 57q-84 0 -138.5 -57t-54.5 -147z" />
<glyph unicode="&#xb4;" horiz-adv-x="514" d="M82 1212l162 293h188l-207 -293h-143z" />
<glyph unicode="&#xb6;" horiz-adv-x="1114" d="M106 1044q0 174 111 282t293 108h100v-1618h-118v841q-174 0 -280 107.5t-106 279.5zM799 -184v1618h119v-1618h-119z" />
<glyph unicode="&#xb7;" horiz-adv-x="468" d="M131 516v236h207v-236h-207z" />
<glyph unicode="&#xb8;" horiz-adv-x="563" d="M82 -285l88 6q14 -70 98 -69q96 0 97 86q0 43 -27 65.5t-64 22.5q-35 0 -84 -23l-75 33l90 164h82l-74 -129q57 25 100 25q66 0 117 -40t51 -118q0 -84 -58 -124t-140 -40q-80 0 -133.5 37t-67.5 104z" />
<glyph unicode="&#xbb;" horiz-adv-x="927" d="M88 213l289 360l-289 361h178l252 -318v-86l-252 -317h-178zM434 213l289 360l-289 361h178l252 -318v-86l-252 -317h-178z" />
<glyph unicode="&#xc0;" horiz-adv-x="1368" d="M39 0l502 1434h286l502 -1434h-194l-127 377h-652l-129 -377h-188zM393 1800h191l180 -237h-143zM406 520h550l-274 811z" />
<glyph unicode="&#xc1;" horiz-adv-x="1368" d="M39 0l502 1434h286l502 -1434h-194l-127 377h-652l-129 -377h-188zM406 520h550l-274 811zM608 1563l183 237h188l-225 -237h-146z" />
<glyph unicode="&#xc2;" horiz-adv-x="1368" d="M39 0l502 1434h286l502 -1434h-194l-127 377h-652l-129 -377h-188zM375 1567l205 239h211l204 -239h-137l-174 180l-174 -180h-135zM406 520h550l-274 811z" />
<glyph unicode="&#xc3;" horiz-adv-x="1368" d="M39 0l502 1434h286l502 -1434h-194l-127 377h-652l-129 -377h-188zM383 1575q0 199 164 199q70 0 150.5 -54.5t115.5 -54.5q72 0 72 92h100q0 -199 -162 -198q-72 0 -152.5 54t-113.5 54q-74 0 -74 -92h-100zM406 520h550l-274 811z" />
<glyph unicode="&#xc4;" horiz-adv-x="1368" d="M39 0l502 1434h286l502 -1434h-194l-127 377h-652l-129 -377h-188zM399 1567v194h183v-194h-183zM406 520h550l-274 811zM788 1567v194h183v-194h-183z" />
<glyph unicode="&#xc5;" horiz-adv-x="1368" d="M39 0l502 1434h286l502 -1434h-194l-127 377h-652l-129 -377h-188zM406 520h550l-274 811zM473 1722.5q0 94.5 62.5 144.5t148.5 50t149.5 -50t63.5 -144.5t-63.5 -143.5t-149.5 -49t-148.5 49t-62.5 143.5zM569 1722q0 -47 34 -76.5t81 -29.5q49 0 83 29.5t34 76.5 q0 49 -34 78t-83 29t-82 -28.5t-33 -78.5z" />
<glyph unicode="&#xc6;" horiz-adv-x="2060" d="M27 0l759 1434h1160v-150h-770v-483h608v-144h-608v-507h798v-150h-987v377h-561l-199 -377h-200zM496 520h491v764h-88z" />
<glyph unicode="&#xc7;" horiz-adv-x="1361" d="M90 717q0 332 161 536.5t454 204.5q238 0 389 -128t180 -345l-178 -18q-20 154 -129 246t-262 92q-207 0 -316.5 -169t-109.5 -419q0 -256 115.5 -422t326.5 -166q164 0 266.5 101.5t122.5 258.5l178 -14q-27 -225 -173 -362.5t-394 -137.5h-25l-59 -104q49 25 98 25 q66 0 118 -40t52 -118q0 -84 -58.5 -124t-139.5 -40q-80 0 -133.5 37t-67.5 104l88 6q14 -70 98 -69q94 0 94 86q0 43 -25.5 65.5t-64.5 22.5q-33 0 -82 -23l-75 33l79 146q-254 35 -391 232.5t-137 502.5z" />
<glyph unicode="&#xc8;" horiz-adv-x="1247" d="M172 0v1434h958v-150h-770v-483h611v-144h-611v-507h799v-150h-987zM342 1800h188l183 -237h-144z" />
<glyph unicode="&#xc9;" horiz-adv-x="1247" d="M172 0v1434h958v-150h-770v-483h611v-144h-611v-507h799v-150h-987zM547 1563l180 237h191l-228 -237h-143z" />
<glyph unicode="&#xca;" horiz-adv-x="1247" d="M172 0v1434h958v-150h-770v-483h611v-144h-611v-507h799v-150h-987zM319 1567l203 239h213l205 -239h-137l-174 180l-174 -180h-136z" />
<glyph unicode="&#xcb;" horiz-adv-x="1247" d="M172 0v1434h958v-150h-770v-483h611v-144h-611v-507h799v-150h-987zM344 1567v194h182v-194h-182zM733 1567v194h182v-194h-182z" />
<glyph unicode="&#xcc;" horiz-adv-x="534" d="M6 1800h184l150 -237h-137zM172 0v1434h188v-1434h-188z" />
<glyph unicode="&#xcd;" horiz-adv-x="534" d="M172 0v1434h188v-1434h-188zM195 1563l149 237h182l-194 -237h-137z" />
<glyph unicode="&#xce;" horiz-adv-x="534" d="M-43 1567l205 239h211l205 -239h-138l-174 180l-174 -180h-135zM172 0v1434h188v-1434h-188z" />
<glyph unicode="&#xcf;" horiz-adv-x="534" d="M25 1567v194h163v-194h-163zM172 0v1434h188v-1434h-188zM346 1567v194h164v-194h-164z" />
<glyph unicode="&#xd0;" horiz-adv-x="1441" d="M63 649v135h140v650h522q299 0 463 -189.5t164 -527.5t-164 -527.5t-463 -189.5h-522v649h-140zM391 154h318q219 0 336.5 150.5t117.5 412.5t-117.5 412.5t-336.5 150.5h-318v-496h400v-135h-400v-495z" />
<glyph unicode="&#xd1;" horiz-adv-x="1482" d="M172 0v1434h317l639 -1321v1321h183v-1434h-318l-639 1321v-1321h-182zM440 1575q0 199 162 199q72 0 153 -54.5t115 -54.5q72 0 72 92h100q0 -199 -161 -198q-72 0 -153 54t-114 54q-74 0 -73 -92h-101z" />
<glyph unicode="&#xd2;" d="M90 717q0 332 167 536.5t472 204.5q307 0 474 -204.5t167 -536.5t-167 -537t-474 -205q-305 0 -472 205t-167 537zM279 717q0 -258 118.5 -423t331.5 -165q215 0 334 165t119 423t-119 423t-334 165q-213 0 -331.5 -165t-118.5 -423zM442 1800h191l180 -237h-143z" />
<glyph unicode="&#xd3;" d="M90 717q0 332 167 536.5t472 204.5q307 0 474 -204.5t167 -536.5t-167 -537t-474 -205q-305 0 -472 205t-167 537zM279 717q0 -258 118.5 -423t331.5 -165q215 0 334 165t119 423t-119 423t-334 165q-213 0 -331.5 -165t-118.5 -423zM647 1563l180 237h191l-227 -237 h-144z" />
<glyph unicode="&#xd4;" d="M90 717q0 332 167 536.5t472 204.5q307 0 474 -204.5t167 -536.5t-167 -537t-474 -205q-305 0 -472 205t-167 537zM279 717q0 -258 118.5 -423t331.5 -165q215 0 334 165t119 423t-119 423t-334 165q-213 0 -331.5 -165t-118.5 -423zM420 1567l205 239h211l204 -239h-137 l-174 180l-174 -180h-135z" />
<glyph unicode="&#xd5;" d="M90 717q0 332 167 536.5t472 204.5q307 0 474 -204.5t167 -536.5t-167 -537t-474 -205q-305 0 -472 205t-167 537zM279 717q0 -258 118.5 -423t331.5 -165q215 0 334 165t119 423t-119 423t-334 165q-213 0 -331.5 -165t-118.5 -423zM428 1575q0 199 164 199 q70 0 150.5 -54.5t115.5 -54.5q72 0 72 92h100q0 -199 -162 -198q-72 0 -152.5 54t-113.5 54q-74 0 -74 -92h-100z" />
<glyph unicode="&#xd6;" d="M90 717q0 332 167 536.5t472 204.5q307 0 474 -204.5t167 -536.5t-167 -537t-474 -205q-305 0 -472 205t-167 537zM279 717q0 -258 118.5 -423t331.5 -165q215 0 334 165t119 423t-119 423t-334 165q-213 0 -331.5 -165t-118.5 -423zM444 1567v194h183v-194h-183z M834 1567v194h182v-194h-182z" />
<glyph unicode="&#xd8;" d="M90 717q0 332 167 536.5t472 204.5q231 0 389 -123l107 140l108 -58l-127 -168q164 -201 164 -532.5t-167 -536.5t-474 -205q-231 0 -389 125l-107 -141l-108 59l127 168q-162 199 -162 531zM279 717q0 -225 90 -377l645 856q-119 109 -285 109q-213 0 -331.5 -165 t-118.5 -423zM446 240q115 -111 283 -111q215 0 334 165t119 423q0 227 -90 379z" />
<glyph unicode="&#xd9;" horiz-adv-x="1468" d="M172 539v895h188v-879q0 -217 93.5 -321.5t282 -104.5t280.5 103.5t92 322.5v879h188v-895q0 -285 -138 -424.5t-423 -139.5q-563 1 -563 564zM446 1800h191l180 -237h-143z" />
<glyph unicode="&#xda;" horiz-adv-x="1468" d="M172 539v895h188v-879q0 -217 93.5 -321.5t282 -104.5t280.5 103.5t92 322.5v879h188v-895q0 -285 -138 -424.5t-423 -139.5q-563 1 -563 564zM651 1563l183 237h188l-225 -237h-146z" />
<glyph unicode="&#xdb;" horiz-adv-x="1468" d="M172 539v895h188v-879q0 -217 93.5 -321.5t282 -104.5t280.5 103.5t92 322.5v879h188v-895q0 -285 -138 -424.5t-423 -139.5q-563 1 -563 564zM424 1567l205 239h213l202 -239h-135l-174 180l-174 -180h-137z" />
<glyph unicode="&#xdc;" horiz-adv-x="1468" d="M172 539v895h188v-879q0 -217 93.5 -321.5t282 -104.5t280.5 103.5t92 322.5v879h188v-895q0 -285 -138 -424.5t-423 -139.5q-563 1 -563 564zM449 1567v194h182v-194h-182zM838 1567v194h182v-194h-182z" />
<glyph unicode="&#xdd;" horiz-adv-x="1339" d="M35 1434h215l420 -693l428 693h209l-543 -842v-592h-189v590zM588 1563l180 237h190l-227 -237h-143z" />
<glyph unicode="&#xde;" horiz-adv-x="1306" d="M172 0v1434h188v-254h381q207 0 345.5 -105.5t138.5 -316.5t-134.5 -312.5t-345.5 -101.5h-385v-344h-188zM360 492h361q145 0 230 66.5t85 199.5q0 131 -85 198.5t-230 67.5h-361v-532z" />
<glyph unicode="&#xdf;" horiz-adv-x="1159" d="M141 0v1157q0 199 108.5 305.5t313.5 106.5q184 0 306 -92.5t122 -272.5q0 -284 -315 -325q199 -18 305 -133t106 -314q0 -221 -125.5 -332.5t-320.5 -111.5q-53 0 -131 12v147q66 -12 108 -12q119 0 204 75t85 238.5t-89 258t-257 94.5h-63v141h57q125 0 190.5 65.5 t65.5 182.5q0 119 -66.5 181.5t-181.5 62.5q-242 0 -241 -301v-1133h-181z" />
<glyph unicode="&#xe0;" horiz-adv-x="1134" d="M84 281q0 289 422 329l319 31v102q0 100 -64.5 163t-189.5 61q-115 0 -188.5 -52.5t-79.5 -156.5h-166q6 174 125 257t309 83q211 0 322 -100.5t111 -288.5v-709h-164v221q-51 -117 -155.5 -181.5t-254.5 -64.5q-172 0 -259 85.5t-87 220.5zM262 287q0 -80 55.5 -131.5 t165.5 -51.5q158 0 250 99.5t92 257.5v65l-299 -30q-264 -25 -264 -209zM324 1505h186l162 -293h-142z" />
<glyph unicode="&#xe1;" horiz-adv-x="1134" d="M84 281q0 289 422 329l319 31v102q0 100 -64.5 163t-189.5 61q-115 0 -188.5 -52.5t-79.5 -156.5h-166q6 174 125 257t309 83q211 0 322 -100.5t111 -288.5v-709h-164v221q-51 -117 -155.5 -181.5t-254.5 -64.5q-172 0 -259 85.5t-87 220.5zM262 287q0 -80 55.5 -131.5 t165.5 -51.5q158 0 250 99.5t92 257.5v65l-299 -30q-264 -25 -264 -209zM465 1212l160 293h188l-207 -293h-141z" />
<glyph unicode="&#xe2;" horiz-adv-x="1134" d="M84 281q0 289 422 329l319 31v102q0 100 -64.5 163t-189.5 61q-115 0 -188.5 -52.5t-79.5 -156.5h-166q6 174 125 257t309 83q211 0 322 -100.5t111 -288.5v-709h-164v221q-51 -117 -155.5 -181.5t-254.5 -64.5q-172 0 -259 85.5t-87 220.5zM262 287q0 -80 55.5 -131.5 t165.5 -51.5q158 0 250 99.5t92 257.5v65l-299 -30q-264 -25 -264 -209zM274 1212l195 293h199l192 -293h-133l-160 226l-157 -226h-136z" />
<glyph unicode="&#xe3;" horiz-adv-x="1134" d="M84 281q0 289 422 329l319 31v102q0 100 -64.5 163t-189.5 61q-115 0 -188.5 -52.5t-79.5 -156.5h-166q6 174 125 257t309 83q211 0 322 -100.5t111 -288.5v-709h-164v221q-51 -117 -155.5 -181.5t-254.5 -64.5q-172 0 -259 85.5t-87 220.5zM256 1239q0 90 40 148.5 t130 58.5q74 0 157 -57.5t117 -57.5q74 1 74 99h105q0 -207 -168 -207q-74 0 -157 57t-120 57q-35 0 -54.5 -27.5t-19.5 -70.5h-104zM262 287q0 -80 55.5 -131.5t165.5 -51.5q158 0 250 99.5t92 257.5v65l-299 -30q-264 -25 -264 -209z" />
<glyph unicode="&#xe4;" horiz-adv-x="1134" d="M84 281q0 289 422 329l319 31v102q0 100 -64.5 163t-189.5 61q-115 0 -188.5 -52.5t-79.5 -156.5h-166q6 174 125 257t309 83q211 0 322 -100.5t111 -288.5v-709h-164v221q-51 -117 -155.5 -181.5t-254.5 -64.5q-172 0 -259 85.5t-87 220.5zM262 287q0 -80 55.5 -131.5 t165.5 -51.5q158 0 250 99.5t92 257.5v65l-299 -30q-264 -25 -264 -209zM311 1249v217h166v-217h-166zM659 1249v217h166v-217h-166z" />
<glyph unicode="&#xe5;" horiz-adv-x="1134" d="M84 281q0 289 422 329l319 31v102q0 100 -64.5 163t-189.5 61q-115 0 -188.5 -52.5t-79.5 -156.5h-166q6 174 125 257t309 83q211 0 322 -100.5t111 -288.5v-709h-164v221q-51 -117 -155.5 -181.5t-254.5 -64.5q-172 0 -259 85.5t-87 220.5zM262 287q0 -80 55.5 -131.5 t165.5 -51.5q158 0 250 99.5t92 257.5v65l-299 -30q-264 -25 -264 -209zM356 1405q0 96 62.5 146.5t148.5 50.5t149.5 -50.5t63.5 -146.5q0 -98 -63.5 -148.5t-149.5 -50.5t-148.5 50.5t-62.5 148.5zM453 1405q0 -51 32.5 -82t81.5 -31t83 31t34 82t-34 81t-83 30 q-47 0 -80.5 -30t-33.5 -81z" />
<glyph unicode="&#xe6;" horiz-adv-x="1861" d="M84 281q0 299 422 323l319 23v114q0 100 -63.5 164t-190.5 62q-115 0 -188.5 -52.5t-79.5 -156.5h-166q6 174 124 257t304 83q301 0 373 -211q121 211 385 211q219 0 341 -147.5t122 -440.5v-25h-778q10 -182 99 -280.5t226 -98.5q94 0 165 50.5t104 134.5l170 -10 q-41 -141 -156 -223.5t-283 -82.5q-332 0 -438 287q-53 -133 -172 -210t-287 -77q-176 0 -264 85t-88 221zM262 287q0 -80 55.5 -131.5t165.5 -51.5q158 0 250 99.5t92 257.5v49l-299 -21q-264 -18 -264 -202zM1010 604h600q-4 166 -83 264.5t-208 98.5q-125 0 -210 -94.5 t-99 -268.5z" />
<glyph unicode="&#xe7;" horiz-adv-x="1110" d="M80 537q0 268 133 414.5t360 146.5q184 0 310.5 -98.5t150.5 -280.5l-172 -17q-20 125 -99 189.5t-190 64.5q-143 0 -229 -111.5t-86 -308t87 -308t233 -111.5q115 0 193.5 68.5t100.5 195.5l172 -14q-25 -186 -151.5 -289t-314.5 -103h-7l-59 -104q49 25 100 25 q63 0 115.5 -40t52.5 -118q0 -84 -58 -124t-140 -40q-80 0 -133.5 37t-67.5 104l88 6q14 -70 98 -69q94 0 95 86q0 43 -26 65.5t-65 22.5q-33 0 -82 -23l-75 33l80 146q-195 25 -304.5 168t-109.5 387z" />
<glyph unicode="&#xe8;" horiz-adv-x="1144" d="M80 537q0 274 138 417.5t368 143.5q236 0 359.5 -145.5t123.5 -442.5v-25h-809q10 -184 101.5 -281.5t238.5 -97.5q209 0 285 185l170 -10q-43 -143 -160 -224.5t-295 -81.5q-240 0 -380 143t-140 419zM262 604h629q-2 168 -85 265.5t-220 97.5q-135 0 -223.5 -93.5 t-100.5 -269.5zM322 1505h188l162 -293h-144z" />
<glyph unicode="&#xe9;" horiz-adv-x="1144" d="M80 537q0 274 138 417.5t368 143.5q236 0 359.5 -145.5t123.5 -442.5v-25h-809q10 -184 101.5 -281.5t238.5 -97.5q209 0 285 185l170 -10q-43 -143 -160 -224.5t-295 -81.5q-240 0 -380 143t-140 419zM262 604h629q-2 168 -85 265.5t-220 97.5q-135 0 -223.5 -93.5 t-100.5 -269.5zM463 1212l162 293h188l-207 -293h-143z" />
<glyph unicode="&#xea;" horiz-adv-x="1144" d="M80 537q0 274 138 417.5t368 143.5q236 0 359.5 -145.5t123.5 -442.5v-25h-809q10 -184 101.5 -281.5t238.5 -97.5q209 0 285 185l170 -10q-43 -143 -160 -224.5t-295 -81.5q-240 0 -380 143t-140 419zM262 604h629q-2 168 -85 265.5t-220 97.5q-135 0 -223.5 -93.5 t-100.5 -269.5zM274 1212l193 293h201l192 -293h-133l-160 226l-159 -226h-134z" />
<glyph unicode="&#xeb;" horiz-adv-x="1144" d="M80 537q0 274 138 417.5t368 143.5q236 0 359.5 -145.5t123.5 -442.5v-25h-809q10 -184 101.5 -281.5t238.5 -97.5q209 0 285 185l170 -10q-43 -143 -160 -224.5t-295 -81.5q-240 0 -380 143t-140 419zM262 604h629q-2 168 -85 265.5t-220 97.5q-135 0 -223.5 -93.5 t-100.5 -269.5zM309 1249v217h166v-217h-166zM659 1249v217h166v-217h-166z" />
<glyph unicode="&#xec;" horiz-adv-x="456" d="M-4 1505h184l127 -293h-139zM135 0v1073h180v-1073h-180z" />
<glyph unicode="&#xed;" horiz-adv-x="464" d="M141 0v1073h181v-1073h-181zM150 1212l126 293h185l-170 -293h-141z" />
<glyph unicode="&#xee;" horiz-adv-x="477" d="M-53 1212l192 293h199l194 -293h-135l-157 226l-160 -226h-133zM150 0v1073h178v-1073h-178z" />
<glyph unicode="&#xef;" horiz-adv-x="450" d="M-2 1249v217h156v-217h-156zM135 0v1073h180v-1073h-180zM299 1249v217h154v-217h-154z" />
<glyph unicode="&#xf0;" horiz-adv-x="1185" d="M80 508q0 244 133 388t342 144q147 0 250.5 -75.5t150.5 -212.5q-27 193 -108.5 319.5t-231.5 208.5l-258 -150l-41 70l211 121q-121 51 -305 86l33 145q250 -47 426 -141l211 121l39 -70l-172 -100q334 -229 334 -731q0 -336 -139.5 -496t-370.5 -160 q-227 0 -365.5 143.5t-138.5 389.5zM258 508q0 -180 89 -285.5t240.5 -105.5t239.5 105.5t88 285.5t-88 285.5t-239.5 105.5t-240.5 -105.5t-89 -285.5z" />
<glyph unicode="&#xf1;" horiz-adv-x="1187" d="M141 0v1073h166v-207q98 231 383 232q178 0 272.5 -97.5t94.5 -291.5v-709h-180v651q0 299 -248 299q-147 0 -227 -95t-80 -259v-596h-181zM281 1239q0 207 168 207q76 0 157.5 -57.5t118.5 -57.5q35 0 54.5 28t19.5 71h104q0 -207 -168 -207q-76 0 -158.5 57t-117.5 57 q-74 0 -74 -98h-104z" />
<glyph unicode="&#xf2;" horiz-adv-x="1173" d="M80 536.5q0 260.5 138 411t369.5 150.5t369 -150.5t137.5 -411t-137.5 -411t-369 -150.5t-369.5 150.5t-138 411zM258 536.5q0 -190.5 89 -305t241 -114.5q150 0 238.5 114.5t88.5 305t-89 305t-238 114.5q-152 0 -241 -114.5t-89 -305zM342 1505h188l160 -293h-141z" />
<glyph unicode="&#xf3;" horiz-adv-x="1173" d="M80 536.5q0 260.5 138 411t369.5 150.5t369 -150.5t137.5 -411t-137.5 -411t-369 -150.5t-369.5 150.5t-138 411zM258 536.5q0 -190.5 89 -305t241 -114.5q150 0 238.5 114.5t88.5 305t-89 305t-238 114.5q-152 0 -241 -114.5t-89 -305zM483 1212l162 293h186l-206 -293 h-142z" />
<glyph unicode="&#xf4;" horiz-adv-x="1173" d="M80 536.5q0 260.5 138 411t369.5 150.5t369 -150.5t137.5 -411t-137.5 -411t-369 -150.5t-369.5 150.5t-138 411zM258 536.5q0 -190.5 89 -305t241 -114.5q150 0 238.5 114.5t88.5 305t-89 305t-238 114.5q-152 0 -241 -114.5t-89 -305zM295 1212l192 293h199l195 -293 h-136l-157 226l-160 -226h-133z" />
<glyph unicode="&#xf5;" horiz-adv-x="1173" d="M80 536.5q0 260.5 138 411t369.5 150.5t369 -150.5t137.5 -411t-137.5 -411t-369 -150.5t-369.5 150.5t-138 411zM258 536.5q0 -190.5 89 -305t241 -114.5q150 0 238.5 114.5t88.5 305t-89 305t-238 114.5q-152 0 -241 -114.5t-89 -305zM274 1239q0 90 40 148.5t130 58.5 q74 0 157 -57.5t118 -57.5q76 1 76 99h104q0 -207 -170 -207q-74 0 -157 57t-117 57q-37 0 -56.5 -26.5t-19.5 -71.5h-105z" />
<glyph unicode="&#xf6;" horiz-adv-x="1173" d="M80 536.5q0 260.5 138 411t369.5 150.5t369 -150.5t137.5 -411t-137.5 -411t-369 -150.5t-369.5 150.5t-138 411zM258 536.5q0 -190.5 89 -305t241 -114.5q150 0 238.5 114.5t88.5 305t-89 305t-238 114.5q-152 0 -241 -114.5t-89 -305zM330 1249v217h166v-217h-166z M680 1249v217h164v-217h-164z" />
<glyph unicode="&#xf8;" horiz-adv-x="1173" d="M80 537q0 260 138 410.5t370 150.5q172 0 293 -84l86 114l92 -53l-98 -131q133 -150 133 -407q0 -260 -137.5 -411t-368.5 -151q-174 0 -295 84l-88 -114l-90 53l98 131q-133 154 -133 408zM258 537q0 -158 64 -267l462 617q-82 70 -196 69q-152 0 -241 -114.5 t-89 -304.5zM389 188q82 -71 199 -71q150 0 238.5 114.5t88.5 305.5q0 156 -61 266z" />
<glyph unicode="&#xf9;" horiz-adv-x="1187" d="M131 379v694h178v-641q0 -309 250 -309q145 0 226 104.5t81 270.5v575h181v-1073h-166v221q-102 -246 -383 -246q-174 0 -270.5 102.5t-96.5 301.5zM350 1505h189l161 -293h-143z" />
<glyph unicode="&#xfa;" horiz-adv-x="1187" d="M131 379v694h178v-641q0 -309 250 -309q145 0 226 104.5t81 270.5v575h181v-1073h-166v221q-102 -246 -383 -246q-174 0 -270.5 102.5t-96.5 301.5zM492 1212l161 293h189l-207 -293h-143z" />
<glyph unicode="&#xfb;" horiz-adv-x="1187" d="M131 379v694h178v-641q0 -309 250 -309q145 0 226 104.5t81 270.5v575h181v-1073h-166v221q-102 -246 -383 -246q-174 0 -270.5 102.5t-96.5 301.5zM303 1212l193 293h200l193 -293h-133l-160 226l-160 -226h-133z" />
<glyph unicode="&#xfc;" horiz-adv-x="1187" d="M131 379v694h178v-641q0 -309 250 -309q145 0 226 104.5t81 270.5v575h181v-1073h-166v221q-102 -246 -383 -246q-174 0 -270.5 102.5t-96.5 301.5zM338 1249v217h166v-217h-166zM688 1249v217h166v-217h-166z" />
<glyph unicode="&#xfd;" horiz-adv-x="1118" d="M39 1073h197l352 -1001l297 1001h192l-399 -1196q-55 -178 -131 -244.5t-230 -66.5q-51 0 -118 6v139q74 -4 108 -4q84 0 127 41t80 156l31 96h-101zM455 1212l161 293h187l-207 -293h-141z" />
<glyph unicode="&#xfe;" horiz-adv-x="1210" d="M141 -410v1917h181v-635q53 106 147 166t215 60q201 0 323.5 -149.5t122.5 -412t-122.5 -412t-323.5 -149.5q-121 0 -215 59.5t-147 170.5v-615h-181zM311 536.5q0 -190.5 87 -305t234.5 -114.5t233.5 114.5t86 305t-86 305t-233.5 114.5t-234.5 -114.5t-87 -305z" />
<glyph unicode="&#xff;" horiz-adv-x="1118" d="M39 1073h197l352 -1001l297 1001h192l-399 -1196q-55 -178 -131 -244.5t-230 -66.5q-51 0 -118 6v139q74 -4 108 -4q84 0 127 41t80 156l31 96h-101zM301 1249v217h166v-217h-166zM651 1249v217h164v-217h-164z" />
<glyph unicode="&#x131;" horiz-adv-x="477" d="M150 0v1073h178v-1073h-178z" />
<glyph unicode="&#x152;" horiz-adv-x="2082" d="M90 717q0 338 164 527.5t463 189.5h1249v-150h-768v-483h608v-144h-608v-507h797v-150h-1278q-299 0 -463 189.5t-164 527.5zM279 717q0 -262 117.5 -412.5t336.5 -150.5h277v1126h-277q-219 0 -336.5 -150.5t-117.5 -412.5z" />
<glyph unicode="&#x153;" horiz-adv-x="1980" d="M80 536.5q0 260.5 137 411t365 150.5q305 0 422 -269q111 268 423 269q231 0 354.5 -146.5t123.5 -441.5v-25h-809q10 -184 101 -281.5t239 -97.5q213 0 284 185l170 -10q-41 -143 -156.5 -224.5t-291.5 -81.5q-324 0 -438 269q-117 -268 -422 -269q-227 0 -364.5 150.5 t-137.5 411zM258 536.5q0 -190.5 89 -305t241 -114.5q150 0 238.5 114.5t88.5 305t-89 305t-238 114.5q-152 0 -241 -114.5t-89 -305zM1098 604h631q-4 168 -87 265.5t-221 97.5q-135 0 -222 -93.5t-101 -269.5z" />
<glyph unicode="&#x178;" horiz-adv-x="1339" d="M35 1434h215l420 -693l428 693h209l-543 -842v-592h-189v590zM385 1567v194h182v-194h-182zM774 1567v194h182v-194h-182z" />
<glyph unicode="&#x2c6;" horiz-adv-x="749" d="M82 1212l192 293h201l193 -293h-133l-160 226l-160 -226h-133z" />
<glyph unicode="&#x2da;" horiz-adv-x="587" d="M82 1405q0 96 62.5 146.5t148.5 50.5t149.5 -50.5t63.5 -146.5q0 -98 -63.5 -148.5t-149.5 -50.5t-148.5 50.5t-62.5 148.5zM178 1405q0 -51 33 -82t82 -31t83 31t34 82t-34 81t-83 30q-47 0 -81 -30t-34 -81z" />
<glyph unicode="&#x2dc;" horiz-adv-x="786" d="M82 1239q0 207 170 207q74 0 155.5 -57.5t118.5 -57.5q74 0 74 99h105q0 -207 -168 -207q-74 0 -157 57t-120 57q-74 0 -74 -98h-104z" />
<glyph unicode="&#x401;" horiz-adv-x="1247" d="M172 0v1434h958v-150h-770v-483h611v-144h-611v-507h799v-150h-987zM344 1567v194h182v-194h-182zM733 1567v194h182v-194h-182z" />
<glyph unicode="&#x404;" horiz-adv-x="1366" d="M90 717q0 332 161 536.5t454 204.5q231 0 384.5 -122t190.5 -330l-180 -17q-27 141 -136.5 228.5t-258.5 87.5q-188 0 -296 -142.5t-126 -361.5h569v-144h-571q14 -233 128.5 -380.5t311.5 -147.5q160 0 263 95.5t130 242.5l180 -12q-35 -217 -183 -348.5t-390 -131.5 q-301 0 -466 206t-165 536z" />
<glyph unicode="&#x406;" horiz-adv-x="534" d="M172 0v1434h188v-1434h-188z" />
<glyph unicode="&#x407;" horiz-adv-x="534" d="M25 1567v194h163v-194h-163zM172 0v1434h188v-1434h-188zM346 1567v194h164v-194h-164z" />
<glyph unicode="&#x40e;" horiz-adv-x="1316" d="M47 1434h213l451 -957l362 957h207l-451 -1100q-80 -199 -163.5 -272.5t-210.5 -73.5q-70 0 -170 12v145q74 -8 129 -8q74 0 122 37t91 145l24 62h-82zM365 1812h120q6 -63 47 -108t130 -45q158 0 176 153h120q-4 -119 -78.5 -188.5t-218 -69.5t-218 70t-78.5 188z" />
<glyph unicode="&#x410;" horiz-adv-x="1368" d="M39 0l502 1434h286l502 -1434h-194l-127 377h-652l-129 -377h-188zM406 520h550l-274 811z" />
<glyph unicode="&#x411;" horiz-adv-x="1318" d="M172 0v1434h963v-148h-775v-448h385q213 0 352.5 -102.5t139.5 -315.5t-139.5 -316.5t-352.5 -103.5h-573zM360 147h371q150 0 234 70t84 203t-84 203.5t-234 70.5h-371v-547z" />
<glyph unicode="&#x412;" horiz-adv-x="1357" d="M172 0v1434h604q205 0 329 -91.5t124 -267.5q0 -152 -98.5 -239t-284.5 -101q193 -12 307.5 -103t114.5 -255q0 -178 -132 -277.5t-352 -99.5h-612zM360 147h410q147 0 228 66t81 186.5t-78.5 189t-222.5 68.5h-418v-510zM360 801h412q125 0 196.5 65.5t71.5 180 t-74.5 177t-205.5 62.5h-400v-485z" />
<glyph unicode="&#x413;" horiz-adv-x="1112" d="M172 0v1434h883v-154h-695v-1280h-188z" />
<glyph unicode="&#x414;" horiz-adv-x="1345" d="M20 154h101q74 160 111.5 474t56.5 806h897v-1280h127v-490h-176v336h-940v-336h-177v490zM297 154h700v1126h-536q-27 -502 -68 -758q-33 -213 -96 -368z" />
<glyph unicode="&#x415;" horiz-adv-x="1247" d="M172 0v1434h958v-150h-770v-483h611v-144h-611v-507h799v-150h-987z" />
<glyph unicode="&#x416;" horiz-adv-x="2068" d="M45 0l551 737l-530 697h217l458 -635h199v635h184v-635h203l459 635h215l-528 -697l548 -737h-223l-473 651h-201v-651h-184v651h-197l-475 -651h-223z" />
<glyph unicode="&#x417;" horiz-adv-x="1245" d="M63 424l179 10q29 -311 381 -311q164 0 255 68.5t91 201.5q0 127 -87 195.5t-259 68.5h-183v144h181q150 0 229.5 66.5t79.5 185.5q0 125 -82 191.5t-223 66.5q-143 0 -240.5 -71t-112.5 -218l-178 14q20 213 161.5 317.5t369.5 104.5q221 0 357 -95t136 -278 q0 -156 -103 -246t-304 -104q209 -12 327.5 -105t118.5 -261q0 -188 -144.5 -291t-389.5 -103q-518 0 -560 449z" />
<glyph unicode="&#x418;" horiz-adv-x="1490" d="M172 0v1434h186v-1303l666 1303h295v-1434h-184v1303l-668 -1303h-295z" />
<glyph unicode="&#x419;" horiz-adv-x="1490" d="M172 0v1434h186v-1303l666 1303h295v-1434h-184v1303l-668 -1303h-295zM449 1812h120q18 -154 176 -153q88 0 129 45t48 108h120q-4 -119 -78.5 -188.5t-218 -69.5t-218 70t-78.5 188z" />
<glyph unicode="&#x41a;" horiz-adv-x="1368" d="M172 0v1434h188v-635h228l475 635h217l-545 -697l586 -737h-225l-506 651h-230v-651h-188z" />
<glyph unicode="&#x41b;" horiz-adv-x="1423" d="M37 -4v151q66 -4 84 -4q31 0 56.5 18.5t43 59.5t30.5 89t21.5 127t14.5 150.5t10 181.5t6 200t6 225.5t8 239.5h932v-1434h-188v1280h-572q-23 -662 -26 -717q-27 -383 -125 -497q-66 -78 -176 -78q-31 0 -125 8z" />
<glyph unicode="&#x41c;" horiz-adv-x="1853" d="M172 0v1434h330l426 -1328l426 1328h325v-1434h-182l2 1327l-444 -1327h-258l-443 1323v-1323h-182z" />
<glyph unicode="&#x41d;" d="M172 0v1434h188v-627h740v627h188v-1434h-188v651h-740v-651h-188z" />
<glyph unicode="&#x41e;" d="M90 717q0 332 167 536.5t472 204.5q307 0 474 -204.5t167 -536.5t-167 -537t-474 -205q-305 0 -472 205t-167 537zM279 717q0 -258 118.5 -423t331.5 -165q215 0 334 165t119 423t-119 423t-334 165q-213 0 -331.5 -165t-118.5 -423z" />
<glyph unicode="&#x41f;" horiz-adv-x="1452" d="M172 0v1434h1108v-1434h-188v1280h-732v-1280h-188z" />
<glyph unicode="&#x420;" horiz-adv-x="1306" d="M172 0v1434h569q209 0 346.5 -106.5t137.5 -328.5q0 -219 -134.5 -322.5t-345.5 -103.5h-385v-573h-188zM360 719h361q145 0 230 69.5t85 211t-85 211t-230 69.5h-361v-561z" />
<glyph unicode="&#x421;" horiz-adv-x="1361" d="M90 717q0 332 161 536.5t454 204.5q238 0 389 -128t180 -345l-178 -18q-20 154 -129 246t-262 92q-207 0 -316.5 -169t-109.5 -419q0 -256 115.5 -422t326.5 -166q164 0 266.5 101.5t122.5 258.5l178 -14q-27 -225 -173 -362.5t-394 -137.5q-303 0 -467 203t-164 539z " />
<glyph unicode="&#x422;" horiz-adv-x="1187" d="M51 1280v154h1086v-154h-449v-1280h-188v1280h-449z" />
<glyph unicode="&#x423;" horiz-adv-x="1316" d="M47 1434h213l451 -957l362 957h207l-451 -1100q-80 -199 -163.5 -272.5t-210.5 -73.5q-70 0 -170 12v145q74 -8 129 -8q74 0 122 37t91 145l24 62h-82z" />
<glyph unicode="&#x424;" horiz-adv-x="1714" d="M84 752q0 285 178 433t471 148h33v125h182v-125h31q295 0 473 -148.5t178 -432.5q0 -283 -178 -431.5t-473 -148.5h-31v-172h-182v172h-33q-293 0 -471 148.5t-178 431.5zM272 752q0 -211 131 -322t342 -111h21v867h-21q-211 0 -342 -110.5t-131 -323.5zM948 319h21 q211 0 342 111t131 322q0 213 -131 323.5t-342 110.5h-21v-867z" />
<glyph unicode="&#x425;" horiz-adv-x="1331" d="M55 0l500 729l-463 705h221l351 -555l354 555h209l-459 -697l504 -737h-219l-394 588l-395 -588h-209z" />
<glyph unicode="&#x426;" horiz-adv-x="1439" d="M172 0v1434h188v-1280h732v1280h188v-1280h125v-490h-174v336h-1059z" />
<glyph unicode="&#x427;" horiz-adv-x="1359" d="M125 993v441h188v-408q0 -170 80 -242.5t250 -72.5q180 0 354 67v656h189v-1434h-189v623q-203 -66 -409 -66q-463 0 -463 436z" />
<glyph unicode="&#x428;" horiz-adv-x="2021" d="M172 0v1434h186v-1280h560v1280h186v-1280h559v1280h186v-1434h-1677z" />
<glyph unicode="&#x429;" horiz-adv-x="2007" d="M172 0v1434h186v-1280h560v1280h186v-1280h559v1280h186v-1280h125v-490h-176v336h-1626z" />
<glyph unicode="&#x42a;" horiz-adv-x="1484" d="M45 1280v154h516v-580h369q211 0 347 -105.5t136 -320.5q0 -217 -137 -322.5t-346 -105.5h-557v1280h-328zM561 154h348q143 0 229.5 68.5t86.5 205.5t-86 205.5t-230 68.5h-348v-548z" />
<glyph unicode="&#x42b;" horiz-adv-x="1732" d="M172 0v1434h188v-580h340q211 0 347.5 -105.5t136.5 -320.5q0 -217 -137.5 -322.5t-346.5 -105.5h-528zM360 154h320q145 0 230 68.5t85 205.5t-85 205.5t-230 68.5h-320v-548zM1370 0v1434h189v-1434h-189z" />
<glyph unicode="&#x42c;" horiz-adv-x="1284" d="M172 0v1434h188v-580h369q211 0 347 -105.5t136 -320.5q0 -217 -137 -322.5t-346 -105.5h-557zM360 154h349q145 0 230 68.5t85 205.5t-85 205.5t-230 68.5h-349v-548z" />
<glyph unicode="&#x42d;" horiz-adv-x="1366" d="M72 455l180 12q27 -147 131 -242.5t262 -95.5q197 0 312.5 147.5t127.5 380.5h-569v144h567q-18 219 -125.5 361.5t-295.5 142.5q-147 0 -258 -87.5t-138 -228.5l-180 17q37 209 192 330.5t384 121.5q293 0 453.5 -204.5t160.5 -536.5q0 -330 -165 -536t-466 -206 q-242 0 -390.5 131.5t-182.5 348.5z" />
<glyph unicode="&#x42e;" horiz-adv-x="1964" d="M172 0v1434h188v-627h269q20 299 177.5 475t442.5 176q307 0 466 -201.5t159 -539.5t-159 -540t-466 -202q-291 0 -448.5 182.5t-171.5 493.5h-269v-651h-188zM815 717q0 -264 112.5 -426t321.5 -162q213 0 325 162t112 426t-112 426t-325 162q-209 0 -321.5 -162 t-112.5 -426z" />
<glyph unicode="&#x42f;" horiz-adv-x="1353" d="M57 0l412 596q-168 23 -270.5 125t-102.5 287q0 215 137.5 320.5t346.5 105.5h602v-1434h-189v590h-331l-379 -590h-226zM285 1007.5q0 -135.5 85 -205t230 -69.5h393v549h-393q-145 0 -230 -69.5t-85 -205z" />
<glyph unicode="&#x430;" horiz-adv-x="1134" d="M84 281q0 289 422 329l319 31v102q0 100 -64.5 163t-189.5 61q-115 0 -188.5 -52.5t-79.5 -156.5h-166q6 174 125 257t309 83q211 0 322 -100.5t111 -288.5v-709h-164v221q-51 -117 -155.5 -181.5t-254.5 -64.5q-172 0 -259 85.5t-87 220.5zM262 287q0 -80 55.5 -131.5 t165.5 -51.5q158 0 250 99.5t92 257.5v65l-299 -30q-264 -25 -264 -209z" />
<glyph unicode="&#x431;" horiz-adv-x="1185" d="M92 657q0 358 100.5 547t327.5 236q43 10 89 17t98.5 13.5t78.5 10.5q135 20 213 51v-141q-55 -35 -190 -56q-31 -4 -94.5 -12t-106.5 -14q-84 -10 -142 -38t-113.5 -88.5t-88.5 -175t-43 -284.5q43 150 148.5 233.5t261.5 83.5q213 0 344 -143t131 -389 q0 -248 -136 -390.5t-370 -142.5q-508 0 -508 682zM270 508q0 -180 88 -285.5t242 -105.5q152 0 240 105.5t88 285.5t-88 285.5t-240 105.5q-154 0 -242 -105.5t-88 -285.5z" />
<glyph unicode="&#x432;" horiz-adv-x="1116" d="M141 0v1073h482q186 0 282 -73.5t96 -196.5q1 -209 -282 -250q315 -29 315 -262q0 -127 -92 -209t-295 -82h-506zM322 135h305q227 0 227 178q0 174 -238 174h-294v-352zM322 606h286q109 0 161 45t52 121q0 166 -223 166h-276v-332z" />
<glyph unicode="&#x433;" horiz-adv-x="905" d="M141 0v1073h709v-147h-528v-926h-181z" />
<glyph unicode="&#x434;" horiz-adv-x="1140" d="M25 147h79q25 53 42.5 128t30.5 233t18.5 232.5t19.5 332.5h760v-926h125v-436h-170v289h-735v-289h-170v436zM279 147h516v779h-424q-37 -526 -60 -654q-14 -74 -32 -125z" />
<glyph unicode="&#x435;" horiz-adv-x="1144" d="M80 537q0 274 138 417.5t368 143.5q236 0 359.5 -145.5t123.5 -442.5v-25h-809q10 -184 101.5 -281.5t238.5 -97.5q209 0 285 185l170 -10q-43 -143 -160 -224.5t-295 -81.5q-240 0 -380 143t-140 419zM262 604h629q-2 168 -85 265.5t-220 97.5q-135 0 -223.5 -93.5 t-100.5 -269.5z" />
<glyph unicode="&#x436;" horiz-adv-x="1650" d="M23 0l446 557l-430 516h213l346 -459h139v459h176v-459h140l346 459h213l-430 -516l446 -557h-221l-360 473h-134v-473h-176v473h-133l-360 -473h-221z" />
<glyph unicode="&#x437;" horiz-adv-x="1062" d="M55 326l172 8q20 -221 301 -221q135 0 204 52t69 142q0 180 -293 180h-135v119h127q135 0 201.5 48t66.5 126q0 82 -65.5 131.5t-174.5 49.5q-111 0 -183.5 -53.5t-82.5 -157.5l-174 10q12 170 131 254t309 84q205 0 312.5 -77t107.5 -206q0 -219 -295 -260 q328 -35 328 -272q0 -137 -106.5 -222.5t-346.5 -85.5q-444 0 -473 351z" />
<glyph unicode="&#x438;" horiz-adv-x="1224" d="M141 0v1073h174v-944l500 944h268v-1073h-172v944l-499 -944h-271z" />
<glyph unicode="&#x439;" horiz-adv-x="1224" d="M141 0v1073h174v-944l500 944h268v-1073h-172v944l-499 -944h-271zM326 1491h120q6 -70 45 -119t121 -49q150 0 168 168h121q-4 -125 -76.5 -199.5t-212 -74.5t-211 74.5t-75.5 199.5z" />
<glyph unicode="&#x43a;" horiz-adv-x="1116" d="M141 0v1073h181v-459h151l379 459h217l-467 -516l492 -557h-224l-401 473h-147v-473h-181z" />
<glyph unicode="&#x43b;" horiz-adv-x="1144" d="M33 -6v143q20 -2 49 -2q45 0 71.5 39t44 154.5t23.5 204t17 305.5q8 151 12 235h754v-1073h-181v926h-413q-6 -88 -17 -244q-8 -152 -13 -219.5t-17.5 -167.5t-29 -141t-45 -89.5t-69.5 -63.5t-98 -15q-31 0 -88 8z" />
<glyph unicode="&#x43c;" horiz-adv-x="1566" d="M141 0v1073h301l342 -975l342 975h299v-1073h-174v948l-356 -948h-225l-355 948v-948h-174z" />
<glyph unicode="&#x43d;" horiz-adv-x="1196" d="M141 0v1073h181v-452h555v452h178v-1073h-178v473h-555v-473h-181z" />
<glyph unicode="&#x43e;" horiz-adv-x="1173" d="M80 536.5q0 260.5 138 411t369.5 150.5t369 -150.5t137.5 -411t-137.5 -411t-369 -150.5t-369.5 150.5t-138 411zM258 536.5q0 -190.5 89 -305t241 -114.5q150 0 238.5 114.5t88.5 305t-89 305t-238 114.5q-152 0 -241 -114.5t-89 -305z" />
<glyph unicode="&#x43f;" horiz-adv-x="1183" d="M141 0v1073h901v-1073h-178v926h-542v-926h-181z" />
<glyph unicode="&#x440;" horiz-adv-x="1210" d="M141 -410v1483h166v-229q49 121 148.5 187.5t228.5 66.5q201 0 323.5 -149.5t122.5 -412t-122.5 -412t-323.5 -149.5q-121 0 -215 59.5t-147 170.5v-615h-181zM311 536.5q0 -190.5 87 -305t234.5 -114.5t233.5 114.5t86 305t-86 305t-233.5 114.5t-234.5 -114.5t-87 -305 z" />
<glyph unicode="&#x441;" horiz-adv-x="1110" d="M80 537q0 268 133 414.5t360 146.5q184 0 310.5 -98.5t150.5 -280.5l-172 -17q-20 125 -99 189.5t-190 64.5q-143 0 -229 -111.5t-86 -308t87 -308t233 -111.5q115 0 193.5 68.5t100.5 195.5l172 -14q-25 -186 -151.5 -289t-314.5 -103q-231 0 -364.5 146t-133.5 416z " />
<glyph unicode="&#x442;" horiz-adv-x="999" d="M47 926v147h905v-147h-362v-926h-180v926h-363z" />
<glyph unicode="&#x443;" horiz-adv-x="1118" d="M39 1073h197l352 -1001l297 1001h192l-399 -1196q-55 -178 -131 -244.5t-230 -66.5q-51 0 -118 6v139q74 -4 108 -4q84 0 127 41t80 156l31 96h-101z" />
<glyph unicode="&#x444;" horiz-adv-x="1478" d="M82 536.5q0 264.5 149.5 413t409.5 148.5h12v409h174v-409h15q258 0 405.5 -148.5t147.5 -413t-147.5 -413t-405.5 -148.5h-15v-385h-174v385h-12q-260 0 -409.5 148.5t-149.5 413zM258 536.5q0 -198.5 104.5 -309t282.5 -110.5h8v839h-8q-178 0 -282.5 -110.5 t-104.5 -309zM827 117h9q178 0 281.5 110.5t103.5 309t-103.5 309t-281.5 110.5h-9v-839z" />
<glyph unicode="&#x445;" horiz-adv-x="1134" d="M47 0l412 541l-393 532h217l284 -405l285 405h209l-387 -526l416 -547h-220l-307 420l-307 -420h-209z" />
<glyph unicode="&#x446;" horiz-adv-x="1210" d="M141 0v1073h181v-926h542v926h178v-926h127v-436h-170v289h-858z" />
<glyph unicode="&#x447;" horiz-adv-x="1128" d="M102 764v309h181v-285q0 -127 60 -182t189 -55q111 0 277 45v477h178v-1073h-178v446q-203 -43 -338 -43q-369 0 -369 361z" />
<glyph unicode="&#x448;" horiz-adv-x="1748" d="M141 0v1073h176v-926h469v926h177v-926h469v926h176v-1073h-1467z" />
<glyph unicode="&#x449;" horiz-adv-x="1775" d="M141 0v1073h176v-926h469v926h177v-926h469v926h176v-926h127v-436h-170v289h-1424z" />
<glyph unicode="&#x44a;" horiz-adv-x="1249" d="M47 926v147h436v-411h285q410 0 410 -330q0 -332 -410 -332h-379h-86v926h-256zM483 137h271q244 0 243 197q0 193 -243 192h-271v-389z" />
<glyph unicode="&#x44b;" horiz-adv-x="1480" d="M141 0v1073h181v-411h260q408 0 407 -330q0 -332 -407 -332h-355h-86zM322 137h245q244 0 244 197q0 193 -244 192h-245v-389zM1159 0v1073h180v-1073h-180z" />
<glyph unicode="&#x44c;" horiz-adv-x="1087" d="M141 0v1073h181v-411h284q408 0 408 -330q0 -332 -408 -332h-379h-86zM322 137h270q244 0 244 197q0 193 -244 192h-270v-389z" />
<glyph unicode="&#x44d;" horiz-adv-x="1105" d="M66 346l174 12q27 -119 103.5 -182t184.5 -63q137 0 222.5 98t97.5 274h-418v123h416q-14 168 -98 260.5t-213 92.5q-104 0 -182.5 -60.5t-102.5 -173.5l-174 12q31 172 156 265.5t303 93.5q227 0 359 -146.5t132 -414.5q0 -270 -133 -416t-365 -146q-182 0 -307 96.5 t-155 274.5z" />
<glyph unicode="&#x44e;" horiz-adv-x="1607" d="M141 0v1073h181v-452h221q20 229 150 353t341 124q229 0 361.5 -146.5t132.5 -415t-132 -415t-362 -146.5q-215 0 -346 130.5t-147 367.5h-219v-473h-181zM717 536.5q0 -196.5 86 -308t231.5 -111.5t230.5 111.5t85 308t-85 308t-230.5 111.5t-231.5 -111.5t-86 -308z " />
<glyph unicode="&#x44f;" horiz-adv-x="1118" d="M61 0l322 451q-137 23 -211 101.5t-74 205.5q0 152 104 233.5t292 81.5h483v-1073h-182v442h-234l-285 -442h-215zM279 748q0 -86 62 -136.5t175 -50.5h279v375h-279q-113 0 -175 -50t-62 -138z" />
<glyph unicode="&#x451;" horiz-adv-x="1144" d="M80 537q0 274 138 417.5t368 143.5q236 0 359.5 -145.5t123.5 -442.5v-25h-809q10 -184 101.5 -281.5t238.5 -97.5q209 0 285 185l170 -10q-43 -143 -160 -224.5t-295 -81.5q-240 0 -380 143t-140 419zM262 604h629q-2 168 -85 265.5t-220 97.5q-135 0 -223.5 -93.5 t-100.5 -269.5zM309 1249v217h166v-217h-166zM659 1249v217h166v-217h-166z" />
<glyph unicode="&#x454;" horiz-adv-x="1105" d="M80 537q0 268 133 414.5t360 146.5q178 0 302 -93.5t155 -265.5l-172 -12q-25 113 -102.5 173.5t-182.5 60.5q-129 0 -213 -92.5t-98 -260.5h416v-123h-418q10 -176 95 -274t223 -98q109 0 186 63t104 182l174 -12q-31 -178 -156.5 -274.5t-307.5 -96.5 q-231 0 -364.5 145.5t-133.5 416.5z" />
<glyph unicode="&#x456;" horiz-adv-x="466" d="M139 1249v230h189v-230h-189zM143 0v1073h181v-1073h-181z" />
<glyph unicode="&#x457;" horiz-adv-x="450" d="M-2 1249v217h156v-217h-156zM135 0v1073h180v-1073h-180zM299 1249v217h154v-217h-154z" />
<glyph unicode="&#x45e;" horiz-adv-x="1118" d="M39 1073h197l352 -1001l297 1001h192l-399 -1196q-55 -178 -131 -244.5t-230 -66.5q-51 0 -118 6v139q74 -4 108 -4q84 0 127 41t80 156l31 96h-101zM270 1491h121q18 -168 168 -168q82 0 121 49t45 119h121q-4 -125 -76 -199.5t-211 -74.5t-212 74.5t-77 199.5z" />
<glyph unicode="&#x490;" horiz-adv-x="1124" d="M172 0v1434h707v346h176v-500h-695v-1280h-188z" />
<glyph unicode="&#x491;" horiz-adv-x="913" d="M141 0v1073h541v299h168v-446h-528v-926h-181z" />
<glyph unicode="&#x4c1;" horiz-adv-x="2068" d="M45 0l551 737l-530 697h217l458 -635h199v635h184v-635h203l459 635h215l-528 -697l548 -737h-223l-473 651h-201v-651h-184v651h-197l-475 -651h-223zM737 1812h121q6 -63 47 -108t129 -45t129 45t47 108h121q-4 -119 -78.5 -188.5t-218 -69.5t-218.5 70t-79 188z" />
<glyph unicode="&#x4c2;" horiz-adv-x="1650" d="M23 0l446 557l-430 516h213l346 -459h139v459h176v-459h140l346 459h213l-430 -516l446 -557h-221l-360 473h-134v-473h-176v473h-133l-360 -473h-221zM539 1491h120q6 -70 45 -119t121 -49q150 0 168 168h119q-4 -125 -75.5 -199.5t-211 -74.5t-211 74.5t-75.5 199.5z " />
<glyph unicode="&#x2000;" horiz-adv-x="958" />
<glyph unicode="&#x2001;" horiz-adv-x="1917" />
<glyph unicode="&#x2002;" horiz-adv-x="958" />
<glyph unicode="&#x2003;" horiz-adv-x="1917" />
<glyph unicode="&#x2004;" horiz-adv-x="639" />
<glyph unicode="&#x2005;" horiz-adv-x="479" />
<glyph unicode="&#x2006;" horiz-adv-x="319" />
<glyph unicode="&#x2007;" horiz-adv-x="319" />
<glyph unicode="&#x2008;" horiz-adv-x="239" />
<glyph unicode="&#x2009;" horiz-adv-x="383" />
<glyph unicode="&#x200a;" horiz-adv-x="106" />
<glyph unicode="&#x2010;" horiz-adv-x="761" d="M117 541v139h528v-139h-528z" />
<glyph unicode="&#x2011;" horiz-adv-x="761" d="M117 541v139h528v-139h-528z" />
<glyph unicode="&#x2012;" horiz-adv-x="761" d="M117 541v139h528v-139h-528z" />
<glyph unicode="&#x2013;" horiz-adv-x="1128" d="M117 541v139h895v-139h-895z" />
<glyph unicode="&#x2014;" horiz-adv-x="1392" d="M117 541v139h1159v-139h-1159z" />
<glyph unicode="&#x2018;" horiz-adv-x="395" d="M98 1028v133l101 297h77v-430h-178z" />
<glyph unicode="&#x2019;" horiz-adv-x="395" d="M119 1004v430h178v-134l-100 -296h-78z" />
<glyph unicode="&#x201a;" horiz-adv-x="395" d="M119 -195v431h178v-134l-100 -297h-78z" />
<glyph unicode="&#x201c;" horiz-adv-x="702" d="M98 1028v133l101 297h77v-430h-178zM406 1028v133l98 297h80v-430h-178z" />
<glyph unicode="&#x201d;" horiz-adv-x="702" d="M119 1004v430h178v-134l-100 -296h-78zM426 1004v430h178v-134l-100 -296h-78z" />
<glyph unicode="&#x201e;" horiz-adv-x="702" d="M119 -195v431h178v-134l-100 -297h-78zM426 -195v431h178v-134l-100 -297h-78z" />
<glyph unicode="&#x2020;" horiz-adv-x="872" d="M106 938v135h246v361h168v-361h246v-135h-246v-1051h-168v1051h-246z" />
<glyph unicode="&#x2021;" horiz-adv-x="888" d="M115 268v135h245v535h-245v135h245v361h168v-361h246v-135h-246v-535h246v-135h-246v-381h-168v381h-245z" />
<glyph unicode="&#x2022;" horiz-adv-x="776" d="M172 645q0 92 60.5 152.5t154.5 60.5t155.5 -60.5t61.5 -152.5q0 -94 -61.5 -153.5t-155.5 -59.5q-96 0 -155.5 59.5t-59.5 153.5z" />
<glyph unicode="&#x2026;" horiz-adv-x="1292" d="M131 0v236h207v-236h-207zM543 0v236h209v-236h-209zM954 0v236h209v-236h-209z" />
<glyph unicode="&#x202f;" horiz-adv-x="383" />
<glyph unicode="&#x2039;" horiz-adv-x="581" d="M63 530v86l250 318h181l-291 -361l291 -360h-181z" />
<glyph unicode="&#x203a;" horiz-adv-x="581" d="M88 213l289 360l-289 361h178l252 -318v-86l-252 -317h-178z" />
<glyph unicode="&#x205f;" horiz-adv-x="479" />
<glyph unicode="&#x20ac;" horiz-adv-x="1316" d="M20 539v96h123q0 10 -1 33.5t-1 36t1 36t1 33.5h-118v96h129q35 258 180 411t381 153q203 0 340 -106.5t178 -293.5l-172 -12q-33 121 -124 192.5t-216 71.5q-158 0 -255 -114.5t-128 -301.5h551v-96h-563q0 -10 -1 -33.5t-1 -35.5q0 -25 4 -70h555v-96h-545 q33 -188 135 -302t260 -114q139 0 230 86t118 225l170 -8q-35 -205 -169 -328t-353 -123q-240 0 -388 154t-187 410h-134z" />
<glyph unicode="&#x2122;" horiz-adv-x="1624" d="M33 1348v86h573v-86h-233v-670h-107v670h-233zM723 678v756h184l215 -695l211 695h185v-756h-105v686l-219 -686h-147l-218 682v-682h-106z" />
<glyph unicode="&#x25ca;" horiz-adv-x="1003" d="M72 717l334 717h190l334 -717l-334 -717h-190zM227 717l275 -613l274 613l-274 612z" />
<glyph unicode="&#x25fc;" horiz-adv-x="1075" d="M0 0v1075h1075v-1075h-1075z" />
</font>
</defs>
</svg>
