<?xml version="1.0" standalone="no"?>
<!DOCTYPE svg PUBLIC "-//W3C//DTD SVG 1.1//EN" "http://www.w3.org/Graphics/SVG/1.1/DTD/svg11.dtd" >
<svg xmlns="http://www.w3.org/2000/svg" xmlns:xlink="http://www.w3.org/1999/xlink" version="1.1">
<metadata></metadata>
<defs>
<font id="rf_dewisemibold" horiz-adv-x="1210" >
<font-face units-per-em="2048" ascent="1638" descent="-410" />
<missing-glyph horiz-adv-x="485" />
<glyph horiz-adv-x="0" />
<glyph unicode="&#xd;" horiz-adv-x="681" />
<glyph unicode=" "  horiz-adv-x="485" />
<glyph unicode="&#x09;" horiz-adv-x="485" />
<glyph unicode="&#xa0;" horiz-adv-x="485" />
<glyph unicode="!" horiz-adv-x="595" d="M174 0v266h248v-266h-248zM182 1434h230l-25 -994h-180z" />
<glyph unicode="&#x22;" horiz-adv-x="731" d="M113 1434h190l-18 -490h-154zM430 1434h188l-16 -490h-156z" />
<glyph unicode="#" horiz-adv-x="1218" d="M37 408v135h244l38 350h-225v135h240l43 381h178l-43 -381h264l43 381h178l-43 -381h228v-135h-242l-39 -350h223v-135h-239l-45 -412h-178l47 412h-267l-45 -412h-178l45 412h-227zM457 543h266l39 350h-266z" />
<glyph unicode="$" horiz-adv-x="1216" d="M63 442l207 9q14 -270 283 -299v475l-150 49q-291 98 -290 373q0 186 122.5 282t317.5 105v172h111v-176q186 -20 301.5 -129t130.5 -289l-207 -13q-6 98 -63.5 167t-161.5 87v-446l151 -51q162 -53 243 -143.5t81 -235.5q0 -190 -127 -290.5t-348 -111.5v-174h-111v174 q-467 29 -490 465zM334 1065q0 -145 201 -213l18 -6v416q-106 -6 -162.5 -57.5t-56.5 -139.5zM664 152q113 8 183.5 59t70.5 154q0 76 -54.5 127t-177.5 90l-22 8v-438z" />
<glyph unicode="%" horiz-adv-x="1648" d="M61 1096q0 164 92.5 257t247.5 93q158 0 249 -93t91 -257t-91 -257.5t-249 -93.5q-156 0 -248 93.5t-92 257.5zM219 1095.5q0 -104.5 49 -163t133 -58.5t133.5 58.5t49.5 163t-48.5 163t-134.5 58.5t-134 -58.5t-48 -163zM260 0l983 1434h146l-983 -1434h-146zM907 340 q0 162 91.5 256t248.5 94q160 0 250 -94t90 -256q0 -164 -90 -258t-250 -94q-158 0 -249 94t-91 258zM1063 340q0 -104 49 -163.5t135 -59.5t135.5 59.5t49.5 163.5t-50.5 163.5t-134.5 59.5t-134 -59.5t-50 -163.5z" />
<glyph unicode="&#x26;" horiz-adv-x="1316" d="M82 344q0 59 17.5 109.5t36 83t67.5 75.5t74.5 60.5t97.5 66.5l53 39l-18 23q-102 125 -141.5 203.5t-39.5 148.5q0 145 101.5 225t265.5 80q170 0 267.5 -86t97.5 -235q0 -98 -50.5 -175t-167.5 -157l-67 -49l282 -338q43 102 56 235h168q-29 -223 -109 -372l232 -281 h-230l-119 143q-152 -168 -411 -168q-231 0 -347 100.5t-116 268.5zM297 358q0 -98 64.5 -160.5t193.5 -62.5q190 0 297 135l-324 389l-59 -43q-90 -66 -131 -122t-41 -136zM428 1147q0 -57 31.5 -112.5t109.5 -149.5l9 -11l53 39q139 98 139 217q0 80 -48 128.5t-126 48.5 q-68 0 -118 -41t-50 -119z" />
<glyph unicode="'" horiz-adv-x="415" d="M113 1434h190l-18 -490h-154z" />
<glyph unicode="(" horiz-adv-x="671" d="M115 612.5q0 315.5 102 539.5t250 355h186q-334 -340 -334 -895q0 -553 334 -893h-186q-147 131 -249.5 354.5t-102.5 539z" />
<glyph unicode=")" horiz-adv-x="671" d="M18 -281q334 340 334 893q0 555 -334 895h189q145 -133 247.5 -356t102.5 -538.5t-102.5 -537.5t-247.5 -356h-189z" />
<glyph unicode="*" horiz-adv-x="776" d="M39 965l113 65l159 66l-159 65l-113 64l61 108l113 -67l135 -103l-22 168v131h123v-131l-23 -168l135 103l113 67l63 -108l-112 -64l-160 -65l160 -66l112 -65l-63 -107l-113 68l-135 102l23 -168v-131h-123v131l22 168l-135 -102l-113 -68z" />
<glyph unicode="+" horiz-adv-x="1017" d="M113 604v150h321v311h150v-311h321v-150h-321v-311h-150v311h-321z" />
<glyph unicode="," horiz-adv-x="505" d="M129 -246v512h248v-164l-150 -348h-98z" />
<glyph unicode="-" horiz-adv-x="765" d="M113 526v170h540v-170h-540z" />
<glyph unicode="." horiz-adv-x="505" d="M129 0v266h248v-266h-248z" />
<glyph unicode="/" horiz-adv-x="819" d="M35 -119l518 1610h199l-519 -1610h-198z" />
<glyph unicode="0" horiz-adv-x="1284" d="M98 717q0 348 141.5 544.5t401.5 196.5q262 0 403.5 -196.5t141.5 -544.5t-141.5 -545t-403.5 -197q-260 0 -401.5 197t-141.5 545zM319 717q0 -266 85 -413.5t237 -147.5t238 147.5t86 413.5t-86 413.5t-238 147.5t-237 -147.5t-85 -413.5z" />
<glyph unicode="1" horiz-adv-x="823" d="M72 975v217l358 242h178v-1434h-221v1184z" />
<glyph unicode="2" horiz-adv-x="1099" d="M31 0v166l465 463q109 104 155.5 155.5t89.5 128t43 148.5q0 104 -63.5 160.5t-165.5 56.5q-117 0 -190.5 -83t-88.5 -253l-213 16q18 250 151.5 375t340.5 125q197 0 324 -103.5t127 -293.5q0 -127 -69 -238.5t-239 -275.5l-368 -367h710v-180h-1009z" />
<glyph unicode="3" horiz-adv-x="1150" d="M41 410l213 16q29 -270 301 -270q139 0 222 74.5t83 209.5q0 125 -75.5 200t-223.5 75q-90 0 -211 -25v154l408 409h-647v181h931v-162l-440 -408q227 -4 348 -102q131 -111 131 -322q0 -225 -147.5 -345t-378.5 -120q-217 0 -355.5 110t-158.5 325z" />
<glyph unicode="4" horiz-adv-x="1249" d="M47 328v166l569 940h359v-926h217v-180h-217v-328h-221v328h-707zM264 508h490v807z" />
<glyph unicode="5" horiz-adv-x="1169" d="M51 379l213 16q23 -117 109 -178t202 -61q131 0 216.5 81.5t85.5 235.5t-85 232.5t-217 78.5q-199 0 -294 -151l-195 16l59 785h873v-181h-707l-32 -448q135 147 362 147q203 0 330 -128t127 -351q0 -238 -144.5 -368t-378.5 -130q-209 0 -353 105.5t-171 298.5z" />
<glyph unicode="6" horiz-adv-x="1245" d="M98 690q0 379 145.5 573.5t409.5 194.5q201 0 324 -106.5t141 -292.5l-213 -15q-10 104 -76.5 170t-175.5 66q-188 0 -276 -209q-55 -137 -58 -350q55 102 155.5 157.5t227.5 55.5q205 0 336 -127t131 -348q0 -225 -141 -354.5t-379 -129.5q-551 0 -551 715zM352 459 q0 -139 81 -222t216 -83t216 82.5t81 222.5q0 137 -81 220t-216 83t-216 -83t-81 -220z" />
<glyph unicode="7" horiz-adv-x="1118" d="M61 1253v181h1004v-154q-416 -633 -545 -1280h-237q133 625 567 1253h-789z" />
<glyph unicode="8" horiz-adv-x="1232" d="M78 377q0 143 90 237.5t246 133.5q-141 35 -221 120.5t-80 216.5q0 180 144 276.5t359 96.5t358.5 -96t143.5 -277q0 -261 -295 -337q154 -39 243 -134.5t89 -236.5q0 -190 -154.5 -296t-384.5 -106q-231 0 -384.5 105.5t-153.5 296.5zM293 403q0 -121 91 -187t232.5 -66 t232.5 66.5t91 186.5q0 119 -91 185.5t-232.5 66.5t-232.5 -66.5t-91 -185.5zM328 1056.5q0 -108.5 78.5 -169t210 -60.5t209 59.5t77.5 170.5q0 109 -77.5 168t-209 59t-210 -59.5t-78.5 -168z" />
<glyph unicode="9" horiz-adv-x="1245" d="M76 981q0 221 140 349t376 128q555 0 555 -715q0 -381 -143.5 -574.5t-409.5 -193.5q-203 0 -326 105.5t-141 294.5l213 14q10 -104 76.5 -169.5t177.5 -65.5q188 0 274 211q55 137 56 358q-55 -102 -155.5 -156.5t-227.5 -54.5q-203 0 -334 126t-131 343zM297 981 q0 -133 82 -215t217 -82t216 82t81 215q0 135 -81 217t-216 82t-217 -83t-82 -216z" />
<glyph unicode=":" horiz-adv-x="505" d="M129 0v266h248v-266h-248zM129 782v267h248v-267h-248z" />
<glyph unicode=";" horiz-adv-x="505" d="M129 -246v512h248v-164l-150 -348h-98zM129 782v267h248v-267h-248z" />
<glyph unicode="&#x3c;" horiz-adv-x="1001" d="M104 578v196l748 338v-180l-592 -254l592 -232v-180z" />
<glyph unicode="=" horiz-adv-x="1026" d="M117 416v149h792v-149h-792zM117 766v149h792v-149h-792z" />
<glyph unicode="&#x3e;" horiz-adv-x="1001" d="M150 266v180l591 232l-591 254v180l747 -338v-196z" />
<glyph unicode="?" horiz-adv-x="1050" d="M39 981q16 238 151.5 357.5t348.5 119.5q195 0 319.5 -94t124.5 -283q0 -119 -56.5 -207t-181.5 -182q-88 -63 -117.5 -105t-29.5 -116v-25h-211v33q0 119 37 182.5t133 131.5q68 49 104.5 82.5t69.5 88t33 115.5q0 98 -61.5 147.5t-163.5 49.5q-129 0 -204 -78t-89 -231 zM369 0v266h247v-266h-247z" />
<glyph unicode="@" horiz-adv-x="1773" d="M94 541q0 340 228.5 565t564.5 225q348 0 570 -218t222 -546q0 -209 -89 -321.5t-247 -112.5q-199 0 -260 168q-43 -92 -117.5 -140t-162.5 -48q-143 0 -237.5 115.5t-94.5 312.5q0 199 94 314.5t238 115.5q174 0 260 -162v141h166v-467q0 -119 34.5 -175t114.5 -56 q199 0 199 309q0 283 -194.5 480.5t-495.5 197.5q-289 0 -489.5 -202.5t-200.5 -495.5q0 -315 194.5 -508t515.5 -193q240 0 410 94l57 -79q-193 -106 -467 -107q-369 0 -591 215t-222 578zM635 541q0 -135 57.5 -215t155.5 -80t156.5 80t58.5 215t-58.5 216t-156.5 81 t-155.5 -81t-57.5 -216z" />
<glyph unicode="A" horiz-adv-x="1394" d="M35 0l487 1434h350l488 -1434h-236l-116 358h-627l-119 -358h-227zM438 535h510l-254 776z" />
<glyph unicode="B" horiz-adv-x="1382" d="M168 0v1434h618q211 0 341 -90.5t130 -270.5q0 -309 -401 -338q201 -12 321.5 -101t120.5 -255q0 -182 -139 -280.5t-362 -98.5h-629zM397 178h379q141 0 217 60.5t76 171.5q0 109 -72.5 171t-208.5 62h-391v-465zM397 815h377q121 0 187.5 59.5t66.5 163.5 q0 102 -69.5 159.5t-194.5 57.5h-367v-440z" />
<glyph unicode="C" horiz-adv-x="1390" d="M88 717q0 334 166 537.5t465 203.5q246 0 401.5 -130t184.5 -351l-218 -19q-20 141 -121.5 227.5t-246.5 86.5q-197 0 -299.5 -160t-102.5 -395q0 -242 111 -398.5t307 -156.5q156 0 252 95t115 241l219 -15q-29 -233 -179.5 -370.5t-406.5 -137.5q-309 0 -478 202 t-169 540z" />
<glyph unicode="D" horiz-adv-x="1439" d="M168 0v1434h545q307 0 473 -189.5t166 -527.5t-166 -527.5t-473 -189.5h-545zM397 188h293q209 0 320.5 141.5t111.5 387.5t-111.5 387t-320.5 141h-293v-1057z" />
<glyph unicode="E" horiz-adv-x="1275" d="M168 0v1434h993v-181h-764v-438h602v-172h-602v-463h793v-180h-1022z" />
<glyph unicode="F" d="M168 0v1434h967v-189h-738v-454h594v-185h-594v-606h-229z" />
<glyph unicode="G" horiz-adv-x="1421" d="M88 717q0 334 166 537.5t465 203.5q236 0 389.5 -120.5t191.5 -329.5l-219 -21q-29 129 -127 207t-235 78q-197 0 -299.5 -160t-102.5 -395q0 -246 121 -400.5t344 -154.5q176 0 334 78v344h-379v157h588v-628q-270 -137 -549 -138q-334 0 -511 203t-177 539z" />
<glyph unicode="H" horiz-adv-x="1486" d="M168 0v1434h229v-611h693v611h229v-1434h-229v635h-693v-635h-229z" />
<glyph unicode="I" horiz-adv-x="565" d="M168 0v1434h229v-1434h-229z" />
<glyph unicode="J" horiz-adv-x="1183" d="M78 424v137h213v-133q0 -129 67.5 -197.5t182 -68.5t180 71.5t65.5 215.5v985h230v-1000q0 -227 -125 -343t-346 -116q-223 0 -345 118t-122 331z" />
<glyph unicode="K" horiz-adv-x="1392" d="M168 0v1434h229v-621h193l452 621h267l-541 -695l584 -739h-273l-487 635h-195v-635h-229z" />
<glyph unicode="L" horiz-adv-x="1150" d="M168 0v1434h229v-1246h688v-188h-917z" />
<glyph unicode="M" horiz-adv-x="1884" d="M168 0v1434h401l375 -1303l375 1303h397v-1434h-221v1300l-397 -1300h-312l-399 1300v-1300h-219z" />
<glyph unicode="N" horiz-adv-x="1511" d="M168 0v1434h385l571 -1295v1295h219v-1434h-385l-571 1294v-1294h-219z" />
<glyph unicode="O" horiz-adv-x="1490" d="M88 717q0 336 171 538.5t486.5 202.5t486.5 -202.5t171 -538.5t-171 -539t-486.5 -203t-486.5 203t-171 539zM317 717q0 -246 113 -400.5t315.5 -154.5t315.5 154.5t113 400.5t-113 400.5t-315.5 154.5t-315.5 -154.5t-113 -400.5z" />
<glyph unicode="P" horiz-adv-x="1333" d="M168 0v1434h590q215 0 356 -108.5t141 -334t-137 -329t-354 -103.5h-367v-559h-229zM397 735h334q137 0 216 63.5t79 192.5q0 127 -79 190.5t-216 63.5h-334v-510z" />
<glyph unicode="Q" horiz-adv-x="1490" d="M88 717q0 336 171 538.5t486.5 202.5t486.5 -202.5t171 -538.5q0 -428 -260 -621l137 -182l-152 -98l-147 196q-104 -37 -236 -37q-315 0 -486 203t-171 539zM317 717q0 -246 112.5 -400.5t315.5 -154.5q49 0 111 14l-106 141l151 101l115 -152q158 152 158 451 q0 246 -113 400.5t-315.5 154.5t-315.5 -154.5t-113 -400.5z" />
<glyph unicode="R" horiz-adv-x="1382" d="M168 0v1434h606q215 0 357.5 -107.5t142.5 -327.5q0 -188 -104.5 -291.5t-276.5 -123.5l438 -584h-276l-404 575h-254v-575h-229zM397 748h353q137 0 215.5 63t78.5 188q0 123 -78.5 186.5t-215.5 63.5h-353v-501z" />
<glyph unicode="S" horiz-adv-x="1267" d="M63 451l216 8q14 -303 364 -303q137 0 227.5 51t90.5 162q0 78 -55.5 128t-186.5 93l-297 96q-307 98 -307 377q0 197 140 296t353 99q229 0 375.5 -113.5t161.5 -316.5l-213 -14q-8 121 -91 192.5t-235 71.5q-125 0 -193.5 -52t-68.5 -147q0 -145 211 -213l297 -94 q170 -53 254 -145t84 -242q0 -205 -147.5 -307.5t-401.5 -102.5q-272 0 -420 122.5t-158 353.5z" />
<glyph unicode="T" horiz-adv-x="1220" d="M49 1245v189h1122v-189h-446v-1245h-229v1245h-447z" />
<glyph unicode="U" horiz-adv-x="1495" d="M168 547v887h229v-869q0 -205 86 -303t265 -98q350 0 350 401v869h229v-887q0 -571 -579.5 -571t-579.5 571z" />
<glyph unicode="V" horiz-adv-x="1345" d="M39 1434h242l393 -1293l395 1293h238l-465 -1434h-342z" />
<glyph unicode="W" horiz-adv-x="1996" d="M49 1434h246l272 -1262l271 1262h325l267 -1262l278 1262h240l-344 -1434h-342l-265 1270l-268 -1270h-344z" />
<glyph unicode="X" horiz-adv-x="1355" d="M49 0l496 729l-457 705h264l324 -525l325 525h254l-454 -695l502 -739h-267l-366 559l-369 -559h-252z" />
<glyph unicode="Y" horiz-adv-x="1368" d="M31 1434h262l391 -668l403 668h250l-538 -852v-582h-230v580z" />
<glyph unicode="Z" horiz-adv-x="1208" d="M41 0v160l813 1085h-766v189h1049v-160l-813 -1086h833v-188h-1116z" />
<glyph unicode="[" horiz-adv-x="632" d="M176 -281v1778h406v-172h-207v-1434h207v-172h-406z" />
<glyph unicode="\" horiz-adv-x="819" d="M68 1491h198l518 -1610h-198z" />
<glyph unicode="]" horiz-adv-x="632" d="M51 -109h209v1434h-209v172h406v-1778h-406v172z" />
<glyph unicode="^" horiz-adv-x="817" d="M45 940l260 494h205l262 -494h-170l-192 408l-195 -408h-170z" />
<glyph unicode="_" horiz-adv-x="823" d="M27 -78h770v-147h-770v147z" />
<glyph unicode="`" horiz-adv-x="548" d="M82 1505h227l158 -297h-170z" />
<glyph unicode="a" horiz-adv-x="1161" d="M82 285q0 295 432 336l303 28v82q0 94 -58.5 151.5t-174.5 57.5q-104 0 -172 -48t-74 -140h-201q6 178 129 262t318 84q219 0 335.5 -104.5t116.5 -307.5v-686h-202v209q-51 -111 -153.5 -172.5t-248.5 -61.5q-174 0 -262 86.5t-88 223.5zM299 295q0 -74 50 -120t151 -46 q145 0 231 91t86 235v57l-274 -27q-244 -24 -244 -190z" />
<glyph unicode="b" horiz-adv-x="1239" d="M135 0v1507h219v-620q53 100 146.5 155.5t208.5 55.5q201 0 326.5 -150.5t125.5 -411t-126 -411t-324 -150.5q-125 0 -222.5 63.5t-150.5 180.5v-219h-203zM344 536.5q0 -176.5 81 -283t218 -106.5q139 0 220 106.5t81 283t-81 283t-220 106.5q-137 0 -218 -106.5 t-81 -283z" />
<glyph unicode="c" horiz-adv-x="1142" d="M78 537q0 268 137 414.5t373 146.5q193 0 323.5 -101.5t155.5 -285.5l-211 -19q-20 115 -93 174.5t-175 59.5q-133 0 -213 -102.5t-80 -287t81 -287t218 -102.5q109 0 181.5 62.5t92.5 181.5l211 -16q-25 -190 -156.5 -295t-328.5 -105q-240 0 -378 146t-138 416z" />
<glyph unicode="d" horiz-adv-x="1239" d="M78 536.5q0 260.5 126 411t326 150.5q115 0 207 -55.5t148 -155.5v620h219v-1507h-203v219q-53 -117 -151.5 -180.5t-221.5 -63.5q-199 0 -324.5 150.5t-125.5 411zM295 536.5q0 -176.5 81 -283t218 -106.5q139 0 220 106.5t81 283t-81 283t-220 106.5 q-137 0 -218 -106.5t-81 -283z" />
<glyph unicode="e" horiz-adv-x="1177" d="M78 537q0 276 143.5 418.5t380.5 142.5q502 0 502 -598v-27h-807q12 -166 97 -253t222 -87q195 0 265 166l209 -14q-43 -145 -165 -227.5t-309 -82.5q-248 0 -393 141.5t-145 420.5zM299 616h588q-6 152 -82 238t-203 86t-208 -82t-95 -242z" />
<glyph unicode="f" horiz-adv-x="751" d="M39 907v166h203v146q0 176 77.5 244.5t245.5 68.5q70 0 158 -10v-166q-90 4 -111 4q-86 0 -118.5 -38t-32.5 -130v-119h237v-166h-237v-907h-219v907h-203z" />
<glyph unicode="g" horiz-adv-x="1230" d="M78 559q0 244 128 391.5t329 147.5q119 0 212 -57.5t146 -159.5v192h203v-977q0 -274 -119 -402t-373 -128q-209 0 -330.5 89t-128.5 267h203q6 -92 72.5 -141t183.5 -49q145 0 209 76.5t64 232.5v170q-111 -190 -340 -191q-203 0 -331 147.5t-128 391.5zM295 553 q0 -166 82 -266.5t217 -100.5q137 0 219 100.5t82 266.5q0 168 -82 270.5t-219 102.5q-135 0 -217 -102.5t-82 -270.5z" />
<glyph unicode="h" d="M135 0v1507h219v-604q104 195 363 195q180 0 274 -101.5t94 -298.5v-698h-219v629q0 289 -229 289q-135 0 -209 -89.5t-74 -244.5v-584h-219z" />
<glyph unicode="i" horiz-adv-x="495" d="M131 1239v244h231v-244h-231zM137 0v1073h219v-1073h-219z" />
<glyph unicode="j" horiz-adv-x="495" d="M-68 -250q33 -4 82 -4q70 0 97.5 32t27.5 126v1169h219v-1225q0 -154 -62.5 -218t-211.5 -64q-50 0 -152 8v176zM133 1239v244h232v-244h-232z" />
<glyph unicode="k" horiz-adv-x="1144" d="M135 0v1507h219v-878h131l351 444h260l-455 -512l483 -561h-272l-371 457h-127v-457h-219z" />
<glyph unicode="l" horiz-adv-x="489" d="M135 0v1507h219v-1507h-219z" />
<glyph unicode="m" horiz-adv-x="1822" d="M135 0v1073h203v-194q98 219 348 219q254 0 320 -230q45 111 137 170.5t215 59.5q160 0 251 -99.5t91 -281.5v-717h-219v659q0 119 -52.5 189t-150.5 70q-117 0 -184.5 -88.5t-67.5 -245.5v-584h-219v659q0 121 -51 190t-152 69q-115 0 -182.5 -88.5t-67.5 -245.5v-584 h-219z" />
<glyph unicode="n" d="M135 0v1073h203v-199q102 223 379 224q180 0 274 -101.5t94 -298.5v-698h-219v629q0 289 -229 289q-135 0 -209 -89.5t-74 -244.5v-584h-219z" />
<glyph unicode="o" horiz-adv-x="1206" d="M78 536.5q0 260.5 142 411t382 150.5q242 0 384 -150.5t142 -411t-142 -411t-384 -150.5q-240 0 -382 150.5t-142 411zM295 536.5q0 -176.5 83 -283t224 -106.5t225 106.5t84 283t-84 283t-225 106.5t-224 -106.5t-83 -283z" />
<glyph unicode="p" horiz-adv-x="1239" d="M135 -410v1483h203v-215q51 115 149.5 177.5t221.5 62.5q201 0 326.5 -150.5t125.5 -411t-126 -411t-324 -150.5q-242 0 -357 215v-600h-219zM344 536.5q0 -176.5 81 -283t218 -106.5q139 0 220 106.5t81 283t-81 283t-220 106.5q-137 0 -218 -106.5t-81 -283z" />
<glyph unicode="q" horiz-adv-x="1239" d="M78 536.5q0 260.5 126 411t326 150.5q123 0 221.5 -62.5t149.5 -177.5v215h203v-1483h-219v600q-55 -104 -148.5 -159.5t-208.5 -55.5q-199 0 -324.5 150.5t-125.5 411zM295 536.5q0 -176.5 81 -283t218 -106.5q139 0 220 106.5t81 283t-81 283t-220 106.5 q-137 0 -218 -106.5t-81 -283z" />
<glyph unicode="r" horiz-adv-x="843" d="M135 0v1073h203v-215q88 236 319 236q66 0 121 -15v-194q-78 14 -149 14q-139 0 -207 -89t-68 -278v-532h-219z" />
<glyph unicode="s" horiz-adv-x="1042" d="M47 313l201 9q20 -188 272 -189q115 0 180.5 37t65.5 106q0 53 -44 88t-151 66l-233 68q-258 74 -258 301q0 154 113.5 226.5t298.5 72.5q193 0 319.5 -81t144.5 -245l-200 -10q-14 88 -85 133t-179 45h-10q-84 0 -134 -34q-52 -36 -53 -101q0 -100 166 -150l233 -65 q287 -78 287 -303q0 -154 -125 -233t-340 -79q-442 0 -469 338z" />
<glyph unicode="t" horiz-adv-x="808" d="M37 907v162h168q37 0 52 15.5t15 50.5v178h207v-240h260v-166h-260v-577q0 -96 28 -131t107 -35q53 0 125 10v-176q-92 -14 -166 -14q-168 0 -240.5 70.5t-72.5 240.5v612h-223z" />
<glyph unicode="u" d="M125 387v686h219v-618q0 -299 231 -299q133 0 207 98t74 256v563h219v-1073h-203v213q-104 -238 -378 -238q-178 0 -273.5 105.5t-95.5 306.5z" />
<glyph unicode="v" horiz-adv-x="1134" d="M35 1073h235l297 -946l299 946h234l-369 -1073h-330z" />
<glyph unicode="w" horiz-adv-x="1763" d="M45 1073h242l235 -915l213 915h305l205 -897l238 897h235l-313 -1073h-309l-211 963l-217 -963h-314z" />
<glyph unicode="x" horiz-adv-x="1163" d="M43 0l408 543l-390 530h265l256 -379l258 379h252l-383 -524l411 -549h-262l-283 393l-280 -393h-252z" />
<glyph unicode="y" horiz-adv-x="1146" d="M37 1073h235l332 -985l273 985h233l-381 -1182q-53 -186 -137 -255.5t-254 -69.5q-63 0 -131 8v168q82 -4 117 -4q86 0 131 38t75 144l25 80h-127z" />
<glyph unicode="z" horiz-adv-x="1011" d="M41 0v152l629 749h-588v172h864v-151l-627 -750h644v-172h-922z" />
<glyph unicode="{" horiz-adv-x="690" d="M70 532v152h18q178 0 178 242v229q0 188 88 265t260 77h25v-151h-16q-86 0 -128 -48.5t-42 -156.5v-240q0 -252 -220 -289v-8q219 -37 220 -289v-239q0 -109 42 -157t128 -48h16v-152h-25q-172 0 -260 77t-88 265v230q0 242 -178 241h-18z" />
<glyph unicode="|" horiz-adv-x="497" d="M168 -248v1755h164v-1755h-164z" />
<glyph unicode="}" horiz-adv-x="690" d="M51 -129h17q86 0 128 48t42 157v239q0 252 219 289v8q-219 37 -219 289v240q0 109 -42 157t-128 48h-17v151h25q172 0 260 -77t88 -265v-229q0 -242 178 -242h16v-152h-16q-178 0 -178 -241v-230q0 -188 -88 -265t-260 -77h-25v152z" />
<glyph unicode="~" horiz-adv-x="1161" d="M150 569q0 125 54 206t175 81q82 0 153.5 -43t129 -85t106.5 -42q53 0 82 40t29 101h133q0 -123 -54.5 -203.5t-175.5 -80.5q-82 0 -153.5 42t-129 84t-106.5 42q-53 0 -81.5 -39t-28.5 -103h-133z" />
<glyph unicode="&#xa2;" horiz-adv-x="1122" d="M78 537q0 254 120.5 398t329.5 161v153h103v-153q166 -14 277.5 -109.5t138.5 -261.5l-199 -16q-39 193 -217 223v-793q88 12 148.5 72.5t80.5 163.5l199 -15q-27 -172 -141.5 -271t-286.5 -112v-153h-103v153q-211 16 -330.5 162t-119.5 398zM281 537 q0 -168 66.5 -270.5t180.5 -125.5v791q-115 -18 -181 -121.5t-66 -273.5z" />
<glyph unicode="&#xa3;" horiz-adv-x="1101" d="M35 0v158q197 186 196 387q0 45 -10 106h-162v123h134q-33 139 -33 234q0 207 117.5 316.5t322.5 109.5q389 0 424 -424l-211 -17q-18 260 -213 260q-102 0 -159.5 -70.5t-57.5 -199.5q0 -74 29 -209h385v-123h-357q12 -61 13 -116q0 -193 -215 -355h825v-180h-1028z" />
<glyph unicode="&#xa5;" horiz-adv-x="1296" d="M31 1409h252l366 -600l373 600h244l-508 -768v-10h383v-115h-383v-127h383v-115h-383v-274h-221v274h-381v115h381v127h-381v115h381v12z" />
<glyph unicode="&#xa7;" horiz-adv-x="1042" d="M80 641q0 170 186 248q-150 88 -149 266q0 154 108.5 228.5t274.5 74.5q172 0 288.5 -83t133.5 -249l-187 -10q-12 96 -77.5 145.5t-157.5 49.5q-80 2 -130.5 -38t-50.5 -112q0 -115 158 -164l221 -67q272 -82 273 -295q-1 -162 -183 -244q166 -86 166 -268 q0 -156 -111.5 -237t-303.5 -81q-188 0 -307 86t-132 261l189 6q10 -100 76.5 -151.5t173.5 -51.5q92 0 153.5 41t61.5 117q0 59 -42 98t-147 70l-231 69q-123 37 -188.5 113t-65.5 178zM272 674q1 -123 177 -174l194 -58q135 51 135 160q0 117 -196 178l-166 51 q-143 -41 -144 -157z" />
<glyph unicode="&#xa8;" horiz-adv-x="727" d="M82 1239v227h199v-227h-199zM446 1239v227h199v-227h-199z" />
<glyph unicode="&#xa9;" horiz-adv-x="1658" d="M88 717q0 334 209 537.5t532.5 203.5t532.5 -203.5t209 -537.5t-209 -538t-532.5 -204t-532.5 204t-209 538zM211 716.5q0 -270.5 174 -450.5t444.5 -180t444.5 180t174 450.5t-174 451t-444.5 180.5t-444.5 -180.5t-174 -451zM489 717q0 199 92.5 306t252.5 107 q131 0 220 -74.5t105 -209.5l-145 -12q-14 86 -62.5 131t-117.5 45q-88 0 -140.5 -78t-52.5 -215t53.5 -215t145.5 -78q72 0 120 48t62 136l145 -10q-14 -139 -104 -217t-223 -78q-164 0 -257.5 108.5t-93.5 305.5z" />
<glyph unicode="&#xab;" horiz-adv-x="983" d="M59 526v95l254 319h213l-295 -367l295 -366h-213zM432 526v95l254 319h213l-295 -367l295 -366h-213z" />
<glyph unicode="&#xad;" horiz-adv-x="765" d="M113 526v170h540v-170h-540z" />
<glyph unicode="&#xae;" horiz-adv-x="1167" d="M72 946q0 221 148.5 366.5t363.5 145.5t363.5 -145.5t148.5 -366.5t-148.5 -366.5t-363.5 -145.5t-363.5 145.5t-148.5 366.5zM156 946q0 -184 122 -308t306 -124q182 0 305 124t123 308t-123 308t-305 124q-184 0 -306 -124t-122 -308zM432 688v531h184q63 0 105.5 -40 t42.5 -122q0 -133 -102 -156l116 -213h-100l-107 209h-55v-209h-84zM516 967h86q76 0 76 90q0 88 -74 88h-88v-178z" />
<glyph unicode="&#xb0;" horiz-adv-x="765" d="M55 1124.5q0 151.5 93.5 242.5t234.5 91t235.5 -91t94.5 -242.5t-94.5 -242.5t-235.5 -91t-234.5 91t-93.5 242.5zM199 1124q0 -86 52 -141t132 -55t133 55t53 141t-53 141.5t-133 55.5t-132 -55.5t-52 -141.5z" />
<glyph unicode="&#xb4;" horiz-adv-x="548" d="M82 1208l158 297h227l-215 -297h-170z" />
<glyph unicode="&#xb6;" horiz-adv-x="1142" d="M102 1040q0 178 112 286t300 108h117v-1620h-139v833q-176 0 -283 109.5t-107 283.5zM811 -186v1620h139v-1620h-139z" />
<glyph unicode="&#xb7;" horiz-adv-x="505" d="M129 502v266h248v-266h-248z" />
<glyph unicode="&#xb8;" horiz-adv-x="587" d="M82 -287l100 6q16 -66 94 -65q90 0 91 82q0 41 -25 62.5t-61 21.5q-33 0 -82 -23l-82 37l92 166h90l-72 -127q58 25 103 25q68 0 122 -40t54 -122q0 -86 -62.5 -127t-148.5 -41t-142.5 38t-70.5 107z" />
<glyph unicode="&#xbb;" horiz-adv-x="983" d="M84 207l297 366l-297 367h213l254 -319v-95l-254 -319h-213zM457 207l297 366l-297 367h213l254 -319v-95l-254 -319h-213z" />
<glyph unicode="&#xc0;" horiz-adv-x="1394" d="M35 0l487 1434h350l488 -1434h-236l-116 358h-627l-119 -358h-227zM387 1802h227l179 -241h-172zM438 535h510l-254 774z" />
<glyph unicode="&#xc1;" horiz-adv-x="1394" d="M35 0l487 1434h350l488 -1434h-236l-116 358h-627l-119 -358h-227zM438 535h510l-254 774zM606 1561l178 241h228l-234 -241h-172z" />
<glyph unicode="&#xc2;" horiz-adv-x="1394" d="M35 0l487 1434h350l488 -1434h-236l-116 358h-627l-119 -358h-227zM367 1565l204 243h252l205 -243h-160l-170 174l-170 -174h-161zM438 535h510l-254 774z" />
<glyph unicode="&#xc3;" horiz-adv-x="1394" d="M35 0l487 1434h350l488 -1434h-236l-116 358h-627l-119 -358h-227zM385 1569q0 215 170 215q76 0 158 -53.5t112 -53.5q68 0 68 90h119q0 -215 -172 -215q-74 0 -156 53.5t-115 53.5q-68 0 -67 -90h-117zM438 535h510l-254 774z" />
<glyph unicode="&#xc4;" horiz-adv-x="1394" d="M35 0l487 1434h350l488 -1434h-236l-116 358h-627l-119 -358h-227zM385 1563v206h219v-206h-219zM438 535h510l-254 774zM793 1563v206h217v-206h-217z" />
<glyph unicode="&#xc5;" horiz-adv-x="1394" d="M35 0l487 1434h350l488 -1434h-236l-116 358h-627l-119 -358h-227zM438 535h510l-254 774zM479 1728.5q0 96.5 64.5 147.5t154.5 51t155 -51t65 -147.5t-65 -148.5t-155 -52t-154.5 52t-64.5 148.5zM588 1729q0 -47 31.5 -75t78.5 -28t79 27.5t32 75.5q0 45 -32 72.5 t-79 27.5t-78.5 -27.5t-31.5 -72.5z" />
<glyph unicode="&#xc6;" horiz-adv-x="2091" d="M23 0l747 1434h1206v-181h-764v-438h603v-172h-603v-463h793v-180h-1022v358h-532l-185 -358h-243zM535 535h448v718h-78z" />
<glyph unicode="&#xc7;" horiz-adv-x="1390" d="M88 717q0 334 166 537.5t465 203.5q246 0 401.5 -130t184.5 -351l-218 -19q-20 141 -121.5 227.5t-246.5 86.5q-197 0 -299.5 -160t-102.5 -395q0 -242 111 -398.5t307 -156.5q156 0 252 95t115 241l219 -15q-29 -233 -179.5 -370.5t-406.5 -137.5h-20l-60 -102 q49 25 105 25q68 0 121 -40t53 -122q0 -86 -62.5 -127t-148.5 -41t-142.5 38t-70.5 107l100 6q16 -66 95 -65q90 0 90 82q0 41 -25 62.5t-61 21.5q-33 0 -82 -23l-82 37l82 150q-258 35 -398.5 230.5t-140.5 502.5z" />
<glyph unicode="&#xc8;" horiz-adv-x="1275" d="M168 0v1434h993v-181h-764v-438h602v-172h-602v-463h793v-180h-1022zM336 1802h227l178 -241h-172z" />
<glyph unicode="&#xc9;" horiz-adv-x="1275" d="M168 0v1434h993v-181h-764v-438h602v-172h-602v-463h793v-180h-1022zM545 1561l180 241h225l-231 -241h-174z" />
<glyph unicode="&#xca;" horiz-adv-x="1275" d="M168 0v1434h993v-181h-764v-438h602v-172h-602v-463h793v-180h-1022zM313 1565l205 243h252l205 -243h-162l-170 174l-170 -174h-160z" />
<glyph unicode="&#xcb;" horiz-adv-x="1275" d="M168 0v1434h993v-181h-764v-438h602v-172h-602v-463h793v-180h-1022zM332 1563v206h219v-206h-219zM737 1563v206h219v-206h-219z" />
<glyph unicode="&#xcc;" horiz-adv-x="565" d="M-2 1802h221l150 -241h-164zM168 0v1434h229v-1434h-229z" />
<glyph unicode="&#xcd;" horiz-adv-x="565" d="M168 0v1434h229v-1434h-229zM197 1561l149 241h221l-207 -241h-163z" />
<glyph unicode="&#xce;" horiz-adv-x="565" d="M-49 1565l205 243h252l204 -243h-159l-170 174l-170 -174h-162zM168 0v1434h229v-1434h-229z" />
<glyph unicode="&#xcf;" horiz-adv-x="565" d="M12 1563v206h197v-206h-197zM168 0v1434h229v-1434h-229zM356 1563v206h197v-206h-197z" />
<glyph unicode="&#xd0;" horiz-adv-x="1470" d="M61 637v160h138v637h544q307 0 473 -189.5t166 -527.5t-165.5 -527.5t-473.5 -189.5h-544v637h-138zM428 188h293q209 0 320.5 140.5t111.5 388.5t-111.5 388t-320.5 140h-293v-448h373v-160h-373v-449z" />
<glyph unicode="&#xd1;" horiz-adv-x="1511" d="M168 0v1434h385l571 -1295v1295h219v-1434h-385l-571 1294v-1294h-219zM442 1569q0 215 172 215q74 0 156 -53.5t113 -53.5q70 0 69 90h117q0 -215 -172 -215q-76 0 -156.5 53.5t-111.5 53.5q-70 0 -70 -90h-117z" />
<glyph unicode="&#xd2;" horiz-adv-x="1490" d="M88 717q0 336 171 538.5t486.5 202.5t486.5 -202.5t171 -538.5t-171 -539t-486.5 -203t-486.5 203t-171 539zM317 717q0 -246 113 -400.5t315.5 -154.5t315.5 154.5t113 400.5t-113 400.5t-315.5 154.5t-315.5 -154.5t-113 -400.5zM438 1802h226l180 -241h-172z" />
<glyph unicode="&#xd3;" horiz-adv-x="1490" d="M88 717q0 336 171 538.5t486.5 202.5t486.5 -202.5t171 -538.5t-171 -539t-486.5 -203t-486.5 203t-171 539zM317 717q0 -246 113 -400.5t315.5 -154.5t315.5 154.5t113 400.5t-113 400.5t-315.5 154.5t-315.5 -154.5t-113 -400.5zM647 1561l178 241h228l-234 -241h-172z " />
<glyph unicode="&#xd4;" horiz-adv-x="1490" d="M88 717q0 336 171 538.5t486.5 202.5t486.5 -202.5t171 -538.5t-171 -539t-486.5 -203t-486.5 203t-171 539zM317 717q0 -246 113 -400.5t315.5 -154.5t315.5 154.5t113 400.5t-113 400.5t-315.5 154.5t-315.5 -154.5t-113 -400.5zM414 1565l204 243h252l205 -243h-160 l-170 174l-170 -174h-161z" />
<glyph unicode="&#xd5;" horiz-adv-x="1490" d="M88 717q0 336 171 538.5t486.5 202.5t486.5 -202.5t171 -538.5t-171 -539t-486.5 -203t-486.5 203t-171 539zM317 717q0 -246 113 -400.5t315.5 -154.5t315.5 154.5t113 400.5t-113 400.5t-315.5 154.5t-315.5 -154.5t-113 -400.5zM432 1569q0 215 170 215 q76 0 158 -53.5t112 -53.5q68 0 68 90h119q0 -215 -172 -215q-76 0 -158 53.5t-113 53.5q-68 0 -67 -90h-117z" />
<glyph unicode="&#xd6;" horiz-adv-x="1490" d="M88 717q0 336 171 538.5t486.5 202.5t486.5 -202.5t171 -538.5t-171 -539t-486.5 -203t-486.5 203t-171 539zM317 717q0 -246 113 -400.5t315.5 -154.5t315.5 154.5t113 400.5t-113 400.5t-315.5 154.5t-315.5 -154.5t-113 -400.5zM432 1563v206h219v-206h-219zM840 1563 v206h219v-206h-219z" />
<glyph unicode="&#xd8;" horiz-adv-x="1490" d="M88 717q0 336 171 538.5t486 202.5q227 0 383 -110l103 137l129 -70l-125 -166q168 -197 168 -532.5t-171 -538.5t-487 -203q-229 0 -385 111l-102 -137l-129 71l125 164q-166 197 -166 533zM317 717q0 -201 78 -344l606 807q-104 92 -256 92q-203 0 -315.5 -154.5 t-112.5 -400.5zM487 256q106 -94 258 -94q203 0 316 154.5t113 400.5q0 203 -78 346z" />
<glyph unicode="&#xd9;" horiz-adv-x="1495" d="M168 547v887h229v-869q0 -205 86 -303t265 -98q350 0 350 401v869h229v-887q0 -571 -579.5 -571t-579.5 571zM440 1802h226l180 -241h-174z" />
<glyph unicode="&#xda;" horiz-adv-x="1495" d="M168 547v887h229v-869q0 -205 86 -303t265 -98q350 0 350 401v869h229v-887q0 -571 -579.5 -571t-579.5 571zM649 1561l178 241h228l-234 -241h-172z" />
<glyph unicode="&#xdb;" horiz-adv-x="1495" d="M168 547v887h229v-869q0 -205 86 -303t265 -98q350 0 350 401v869h229v-887q0 -571 -579.5 -571t-579.5 571zM416 1565l205 243h251l205 -243h-159l-170 174l-170 -174h-162z" />
<glyph unicode="&#xdc;" horiz-adv-x="1495" d="M168 547v887h229v-869q0 -205 86 -303t265 -98q350 0 350 401v869h229v-887q0 -571 -579.5 -571t-579.5 571zM434 1563v206h219v-206h-219zM842 1563v206h217v-206h-217z" />
<glyph unicode="&#xdd;" horiz-adv-x="1368" d="M31 1434h262l391 -668l403 668h250l-538 -852v-582h-230v580zM586 1561l180 241h225l-231 -241h-174z" />
<glyph unicode="&#xde;" horiz-adv-x="1333" d="M168 0v1434h229v-244h361q213 0 355 -107.5t142 -326.5q0 -217 -137 -319.5t-354 -102.5h-367v-334h-229zM397 512h334q137 0 216 61.5t79 182.5q0 123 -79 184t-216 61h-334v-489z" />
<glyph unicode="&#xdf;" horiz-adv-x="1185" d="M135 0v1151q0 205 113.5 311.5t326.5 106.5q188 0 315.5 -92.5t127.5 -278.5q-1 -285 -318 -326q416 -41 416 -438q0 -221 -127 -333.5t-325 -112.5q-53 0 -136 12v178q66 -12 105 -12q113 0 188.5 69.5t75.5 221.5q0 154 -82 237.5t-240 83.5h-59v170h49 q115 0 174.5 60.5t59.5 171.5q0 109 -59.5 167t-164.5 58q-221 0 -221 -281v-1124h-219z" />
<glyph unicode="&#xe0;" horiz-adv-x="1161" d="M82 285q0 295 432 336l303 28v82q0 94 -58.5 151.5t-174.5 57.5q-104 0 -172 -48t-74 -140h-201q6 178 129 262t318 84q219 0 335.5 -104.5t116.5 -307.5v-686h-202v209q-51 -111 -153.5 -172.5t-248.5 -61.5q-174 0 -262 86.5t-88 223.5zM299 295q0 -74 50 -120t151 -46 q145 0 231 91t86 235v57l-274 -27q-244 -24 -244 -190zM319 1505h228l158 -297h-170z" />
<glyph unicode="&#xe1;" horiz-adv-x="1161" d="M82 285q0 295 432 336l303 28v82q0 94 -58.5 151.5t-174.5 57.5q-104 0 -172 -48t-74 -140h-201q6 178 129 262t318 84q219 0 335.5 -104.5t116.5 -307.5v-686h-202v209q-51 -111 -153.5 -172.5t-248.5 -61.5q-174 0 -262 86.5t-88 223.5zM299 295q0 -74 50 -120t151 -46 q145 0 231 91t86 235v57l-274 -27q-244 -24 -244 -190zM461 1208l160 297h227l-215 -297h-172z" />
<glyph unicode="&#xe2;" horiz-adv-x="1161" d="M82 285q0 295 432 336l303 28v82q0 94 -58.5 151.5t-174.5 57.5q-104 0 -172 -48t-74 -140h-201q6 178 129 262t318 84q219 0 335.5 -104.5t116.5 -307.5v-686h-202v209q-51 -111 -153.5 -172.5t-248.5 -61.5q-174 0 -262 86.5t-88 223.5zM272 1208l193 297h235l195 -297 h-158l-153 217l-156 -217h-156zM299 295q0 -74 50 -120t151 -46q145 0 231 91t86 235v57l-274 -27q-244 -24 -244 -190z" />
<glyph unicode="&#xe3;" horiz-adv-x="1161" d="M82 285q0 295 432 336l303 28v82q0 94 -58.5 151.5t-174.5 57.5q-104 0 -172 -48t-74 -140h-201q6 178 129 262t318 84q219 0 335.5 -104.5t116.5 -307.5v-686h-202v209q-51 -111 -153.5 -172.5t-248.5 -61.5q-174 0 -262 86.5t-88 223.5zM260 1231q0 221 176 221 q78 0 162 -56.5t117 -56.5q71 1 71 97h121q0 -223 -178 -224q-78 0 -162 56.5t-116 56.5q-72 0 -72 -94h-119zM299 295q0 -74 50 -120t151 -46q145 0 231 91t86 235v57l-274 -27q-244 -24 -244 -190z" />
<glyph unicode="&#xe4;" horiz-adv-x="1161" d="M82 285q0 295 432 336l303 28v82q0 94 -58.5 151.5t-174.5 57.5q-104 0 -172 -48t-74 -140h-201q6 178 129 262t318 84q219 0 335.5 -104.5t116.5 -307.5v-686h-202v209q-51 -111 -153.5 -172.5t-248.5 -61.5q-174 0 -262 86.5t-88 223.5zM299 295q0 -74 50 -120t151 -46 q145 0 231 91t86 235v57l-274 -27q-244 -24 -244 -190zM301 1239v227h199v-227h-199zM668 1239v227h196v-227h-196z" />
<glyph unicode="&#xe5;" horiz-adv-x="1161" d="M82 285q0 295 432 336l303 28v82q0 94 -58.5 151.5t-174.5 57.5q-104 0 -172 -48t-74 -140h-201q6 178 129 262t318 84q219 0 335.5 -104.5t116.5 -307.5v-686h-202v209q-51 -111 -153.5 -172.5t-248.5 -61.5q-174 0 -262 86.5t-88 223.5zM299 295q0 -74 50 -120t151 -46 q145 0 231 91t86 235v57l-274 -27q-244 -24 -244 -190zM365 1405q0 100 64.5 152.5t154.5 52.5t154.5 -52.5t64.5 -152.5t-64.5 -152.5t-154.5 -52.5t-154.5 52.5t-64.5 152.5zM473 1405q0 -49 32 -77t79 -28t78.5 28t31.5 77t-31.5 76.5t-78.5 27.5t-79 -27.5t-32 -76.5z " />
<glyph unicode="&#xe6;" horiz-adv-x="1890" d="M82 285q0 303 432 331l303 21v90q0 96 -58.5 154.5t-174.5 58.5q-104 0 -172 -48t-74 -140h-201q6 178 128 262t313 84q293 0 372 -197q123 197 387 197q229 0 354.5 -148.5t125.5 -449.5v-27h-775q12 -166 94.5 -253t211.5 -87q176 0 245 166l209 -14 q-41 -145 -160.5 -227.5t-293.5 -82.5q-338 0 -447 277q-55 -129 -175 -203t-286 -74q-178 0 -268 86t-90 224zM299 295q0 -74 50 -120t151 -46q145 0 231 91.5t86 234.5v45l-274 -19q-244 -18 -244 -186zM1042 616h560q-6 150 -79 237t-190 87q-115 0 -195 -83t-96 -241z " />
<glyph unicode="&#xe7;" horiz-adv-x="1142" d="M78 537q0 268 137 414.5t373 146.5q193 0 323.5 -101.5t155.5 -285.5l-211 -19q-20 115 -93 174.5t-175 59.5q-133 0 -213 -102.5t-80 -287t81 -287t218 -102.5q109 0 181.5 62.5t92.5 181.5l211 -16q-25 -190 -156.5 -295t-328.5 -105h-4l-60 -102q53 25 105 25 q68 0 121 -40t53 -122q0 -86 -61.5 -127t-149.5 -41q-86 0 -141.5 38t-69.5 107l98 6q16 -66 95 -65q41 0 66.5 21.5t25.5 60.5q0 41 -24.5 62.5t-61.5 21.5q-33 0 -82 -23l-82 37l80 148q-199 27 -311.5 170t-112.5 385z" />
<glyph unicode="&#xe8;" horiz-adv-x="1177" d="M78 537q0 276 143.5 418.5t380.5 142.5q502 0 502 -598v-27h-807q12 -166 97 -253t222 -87q195 0 265 166l209 -14q-43 -145 -165 -227.5t-309 -82.5q-248 0 -393 141.5t-145 420.5zM299 616h588q-6 152 -82 238t-203 86t-208 -82t-95 -242zM319 1505h228l158 -297h-170z " />
<glyph unicode="&#xe9;" horiz-adv-x="1177" d="M78 537q0 276 143.5 418.5t380.5 142.5q502 0 502 -598v-27h-807q12 -166 97 -253t222 -87q195 0 265 166l209 -14q-43 -145 -165 -227.5t-309 -82.5q-248 0 -393 141.5t-145 420.5zM299 616h588q-6 152 -82 238t-203 86t-208 -82t-95 -242zM461 1208l160 297h227 l-215 -297h-172z" />
<glyph unicode="&#xea;" horiz-adv-x="1177" d="M78 537q0 276 143.5 418.5t380.5 142.5q502 0 502 -598v-27h-807q12 -166 97 -253t222 -87q195 0 265 166l209 -14q-43 -145 -165 -227.5t-309 -82.5q-248 0 -393 141.5t-145 420.5zM272 1208l193 297h235l195 -297h-158l-153 217l-154 -217h-158zM299 616h588 q-6 152 -82 238t-203 86t-208 -82t-95 -242z" />
<glyph unicode="&#xeb;" horiz-adv-x="1177" d="M78 537q0 276 143.5 418.5t380.5 142.5q502 0 502 -598v-27h-807q12 -166 97 -253t222 -87q195 0 265 166l209 -14q-43 -145 -165 -227.5t-309 -82.5q-248 0 -393 141.5t-145 420.5zM299 616h588q-6 152 -82 238t-203 86t-208 -82t-95 -242zM301 1239v227h199v-227h-199z M668 1239v227h196v-227h-196z" />
<glyph unicode="&#xec;" horiz-adv-x="485" d="M-12 1505h225l123 -297h-168zM131 0v1073h219v-1073h-219z" />
<glyph unicode="&#xed;" horiz-adv-x="491" d="M135 0v1073h219v-1073h-219zM150 1208l122 297h226l-181 -297h-167z" />
<glyph unicode="&#xee;" horiz-adv-x="501" d="M-61 1208l194 297h236l192 -297h-155l-156 217l-154 -217h-157zM141 0v1073h219v-1073h-219z" />
<glyph unicode="&#xef;" horiz-adv-x="483" d="M-10 1239v227h186v-227h-186zM131 0v1073h219v-1073h-219zM307 1239v227h187v-227h-187z" />
<glyph unicode="&#xf0;" horiz-adv-x="1218" d="M78 506q0 242 136 387t347 145q147 0 248.5 -72.5t151.5 -203.5q-55 346 -347 495l-252 -145l-47 80l197 113q-119 43 -287 75l37 176q266 -51 438 -143l205 119l47 -80l-161 -92q338 -231 337 -727q0 -336 -144 -497t-386 -161q-236 0 -378 143.5t-142 387.5zM295 506 q0 -164 83 -261.5t224 -97.5q143 0 226 96.5t83 262.5t-83 263t-226 97q-141 0 -224 -98t-83 -262z" />
<glyph unicode="&#xf1;" d="M135 0v1073h203v-199q102 223 379 224q180 0 274 -101.5t94 -298.5v-698h-219v629q0 289 -229 289q-135 0 -209 -89.5t-74 -244.5v-584h-219zM279 1231q0 221 178 221q78 0 161.5 -56.5t116.5 -56.5q72 1 72 97h121q0 -223 -178 -224q-78 0 -162 56.5t-117 56.5 q-72 0 -72 -94h-120z" />
<glyph unicode="&#xf2;" horiz-adv-x="1206" d="M78 536.5q0 260.5 142 411t382 150.5q242 0 384 -150.5t142 -411t-142 -411t-384 -150.5q-240 0 -382 150.5t-142 411zM295 536.5q0 -176.5 83 -283t224 -106.5t225 106.5t84 283t-84 283t-225 106.5t-224 -106.5t-83 -283zM338 1505h227l160 -297h-170z" />
<glyph unicode="&#xf3;" horiz-adv-x="1206" d="M78 536.5q0 260.5 142 411t382 150.5q242 0 384 -150.5t142 -411t-142 -411t-384 -150.5q-240 0 -382 150.5t-142 411zM295 536.5q0 -176.5 83 -283t224 -106.5t225 106.5t84 283t-84 283t-225 106.5t-224 -106.5t-83 -283zM481 1208l158 297h227l-215 -297h-170z" />
<glyph unicode="&#xf4;" horiz-adv-x="1206" d="M78 536.5q0 260.5 142 411t382 150.5q242 0 384 -150.5t142 -411t-142 -411t-384 -150.5q-240 0 -382 150.5t-142 411zM291 1208l194 297h236l192 -297h-155l-156 217l-153 -217h-158zM295 536.5q0 -176.5 83 -283t224 -106.5t225 106.5t84 283t-84 283t-225 106.5 t-224 -106.5t-83 -283z" />
<glyph unicode="&#xf5;" horiz-adv-x="1206" d="M78 536.5q0 260.5 142 411t382 150.5q242 0 384 -150.5t142 -411t-142 -411t-384 -150.5q-240 0 -382 150.5t-142 411zM279 1231q0 221 178 221q78 0 161.5 -56.5t116.5 -56.5q70 1 70 97h121q0 -223 -176 -224q-78 0 -163 56.5t-118 56.5q-70 0 -70 -94h-120zM295 536.5 q0 -176.5 83 -283t224 -106.5t225 106.5t84 283t-84 283t-225 106.5t-224 -106.5t-83 -283z" />
<glyph unicode="&#xf6;" horiz-adv-x="1206" d="M78 536.5q0 260.5 142 411t382 150.5q242 0 384 -150.5t142 -411t-142 -411t-384 -150.5q-240 0 -382 150.5t-142 411zM295 536.5q0 -176.5 83 -283t224 -106.5t225 106.5t84 283t-84 283t-225 106.5t-224 -106.5t-83 -283zM322 1239v227h198v-227h-198zM686 1239v227 h199v-227h-199z" />
<glyph unicode="&#xf8;" horiz-adv-x="1206" d="M78 537q0 260 142 410.5t382 150.5q168 0 291 -76l86 115l106 -62l-98 -129q141 -152 141 -409q0 -260 -142 -411t-384 -151q-166 0 -289 76l-86 -114l-106 61l96 129q-139 156 -139 410zM295 537q0 -139 53 -236l430 569q-78 55 -176 56q-141 0 -224 -106.5t-83 -282.5z M428 205q74 -58 174 -58q141 0 225 106.5t84 283.5q0 141 -53 237z" />
<glyph unicode="&#xf9;" d="M125 387v686h219v-618q0 -299 231 -299q133 0 207 98t74 256v563h219v-1073h-203v213q-104 -238 -378 -238q-178 0 -273.5 105.5t-95.5 306.5zM344 1505h227l158 -297h-170z" />
<glyph unicode="&#xfa;" d="M125 387v686h219v-618q0 -299 231 -299q133 0 207 98t74 256v563h219v-1073h-203v213q-104 -238 -378 -238q-178 0 -273.5 105.5t-95.5 306.5zM485 1208l160 297h227l-215 -297h-172z" />
<glyph unicode="&#xfb;" d="M125 387v686h219v-618q0 -299 231 -299q133 0 207 98t74 256v563h219v-1073h-203v213q-104 -238 -378 -238q-178 0 -273.5 105.5t-95.5 306.5zM297 1208l192 297h236l195 -297h-158l-154 217l-155 -217h-156z" />
<glyph unicode="&#xfc;" d="M125 387v686h219v-618q0 -299 231 -299q133 0 207 98t74 256v563h219v-1073h-203v213q-104 -238 -378 -238q-178 0 -273.5 105.5t-95.5 306.5zM326 1239v227h198v-227h-198zM692 1239v227h197v-227h-197z" />
<glyph unicode="&#xfd;" horiz-adv-x="1146" d="M37 1073h235l332 -985l273 985h233l-381 -1182q-53 -186 -137 -255.5t-254 -69.5q-63 0 -131 8v168q82 -4 117 -4q86 0 131 38t75 144l25 80h-127zM451 1208l159 297h228l-215 -297h-172z" />
<glyph unicode="&#xfe;" horiz-adv-x="1239" d="M135 -410v1917h219v-620q53 100 146.5 155.5t208.5 55.5q201 0 326.5 -150.5t125.5 -411t-126 -411t-324 -150.5q-244 0 -357 215v-600h-219zM344 536.5q0 -176.5 81 -283t218 -106.5q139 0 220 106.5t81 283t-81 283t-220 106.5q-137 0 -218 -106.5t-81 -283z" />
<glyph unicode="&#xff;" horiz-adv-x="1146" d="M37 1073h235l332 -985l273 985h233l-381 -1182q-53 -186 -137 -255.5t-254 -69.5q-63 0 -131 8v168q82 -4 117 -4q86 0 131 38t75 144l25 80h-127zM291 1239v227h198v-227h-198zM657 1239v227h197v-227h-197z" />
<glyph unicode="&#x131;" horiz-adv-x="501" d="M141 0v1073h219v-1073h-219z" />
<glyph unicode="&#x152;" horiz-adv-x="2115" d="M88 717q0 338 167 527.5t472 189.5h1274v-181h-766v-438h604v-172h-604v-463h795v-180h-1303q-305 0 -472 189.5t-167 527.5zM317 717q0 -246 112 -387.5t321 -141.5h256v1057h-256q-209 0 -321 -141t-112 -387z" />
<glyph unicode="&#x153;" horiz-adv-x="2011" d="M78 537q0 258 141 409.5t375 151.5q301 0 422 -248q121 248 428 248q493 0 493 -598v-27h-807q12 -166 97.5 -253t222.5 -87q195 0 264 166l209 -14q-43 -145 -163 -227.5t-302 -82.5q-324 0 -440 248q-123 -248 -424 -248q-233 0 -374.5 152t-141.5 410zM295 536.5 q0 -176.5 83 -283t224 -106.5t225 106.5t84 283t-84 283t-225 106.5t-224 -106.5t-83 -283zM1133 616h587q-6 152 -81.5 238t-202.5 86t-208 -82t-95 -242z" />
<glyph unicode="&#x178;" horiz-adv-x="1368" d="M31 1434h262l391 -668l403 668h250l-538 -852v-582h-230v580zM373 1563v206h219v-206h-219zM778 1563v206h219v-206h-219z" />
<glyph unicode="&#x2c6;" horiz-adv-x="786" d="M82 1208l194 297h234l195 -297h-158l-154 217l-153 -217h-158z" />
<glyph unicode="&#x2da;" horiz-adv-x="602" d="M82 1405q0 100 64.5 152.5t154.5 52.5t154.5 -52.5t64.5 -152.5t-64.5 -152.5t-154.5 -52.5t-154.5 52.5t-64.5 152.5zM190 1405q0 -49 32 -77t79 -28t79 28t32 77t-32 76.5t-79 27.5t-79 -27.5t-32 -76.5z" />
<glyph unicode="&#x2dc;" horiz-adv-x="811" d="M82 1231q0 221 178 221q78 0 162 -56.5t117 -56.5q70 0 69 97h121q0 -223 -176 -224q-78 0 -163 56.5t-118 56.5q-70 0 -69 -94h-121z" />
<glyph unicode="&#x401;" horiz-adv-x="1275" d="M168 0v1434h993v-181h-764v-438h602v-172h-602v-463h793v-180h-1022zM332 1563v206h219v-206h-219zM737 1563v206h219v-206h-219z" />
<glyph unicode="&#x404;" horiz-adv-x="1396" d="M88 717q0 334 166 537.5t465 203.5q240 0 396.5 -124t195.5 -337l-219 -18q-27 131 -130.5 212t-242.5 81q-174 0 -274.5 -128t-122.5 -329h536v-172h-539q18 -215 127 -348t289 -133q152 0 248 88t123 227l221 -16q-35 -223 -187.5 -354.5t-404.5 -131.5 q-307 0 -477 205t-170 537z" />
<glyph unicode="&#x406;" horiz-adv-x="565" d="M168 0v1434h229v-1434h-229z" />
<glyph unicode="&#x407;" horiz-adv-x="565" d="M12 1563v206h197v-206h-197zM168 0v1434h229v-1434h-229zM356 1563v206h197v-206h-197z" />
<glyph unicode="&#x40e;" horiz-adv-x="1345" d="M43 1434h256l426 -926l336 926h252l-430 -1074q-82 -211 -173.5 -291.5t-236.5 -80.5q-92 0 -186 12v178q80 -8 139 -8q74 0 123 35t90 133l18 51h-100zM360 1823h146q6 -59 45 -102.5t123 -43.5q152 0 170 146h143q-4 -125 -83 -199t-230.5 -74t-230 74t-83.5 199z" />
<glyph unicode="&#x410;" horiz-adv-x="1394" d="M35 0l487 1434h350l488 -1434h-236l-116 358h-627l-119 -358h-227zM438 535h510l-254 774z" />
<glyph unicode="&#x411;" horiz-adv-x="1343" d="M168 0v1434h993v-179h-764v-405h363q221 0 364.5 -103.5t143.5 -320.5q0 -219 -143.5 -322.5t-364.5 -103.5h-592zM397 178h342q145 0 222 64.5t77 183.5q0 121 -76.5 184.5t-222.5 63.5h-342v-496z" />
<glyph unicode="&#x412;" horiz-adv-x="1382" d="M168 0v1434h618q211 0 341 -90.5t130 -270.5q0 -309 -401 -338q201 -12 321.5 -101t120.5 -255q0 -182 -139 -280.5t-362 -98.5h-629zM397 178h379q141 0 217 60.5t76 171.5q0 109 -72.5 171t-208.5 62h-391v-465zM397 815h377q121 0 187.5 59.5t66.5 163.5 q0 102 -69.5 159.5t-194.5 57.5h-367v-440z" />
<glyph unicode="&#x413;" horiz-adv-x="1142" d="M168 0v1434h917v-189h-688v-1245h-229z" />
<glyph unicode="&#x414;" horiz-adv-x="1378" d="M18 188h105q129 276 162 1246h932v-1246h131v-522h-215v334h-902v-334h-213v522zM336 188h651v1057h-495q-20 -430 -66 -710q-37 -217 -90 -347z" />
<glyph unicode="&#x415;" horiz-adv-x="1275" d="M168 0v1434h993v-181h-764v-438h602v-172h-602v-463h793v-180h-1022z" />
<glyph unicode="&#x416;" horiz-adv-x="2093" d="M41 0l545 739l-525 695h265l438 -621h170v621h223v-621h172l438 621h265l-525 -695l545 -739h-270l-455 635h-170v-635h-223v635h-168l-455 -635h-270z" />
<glyph unicode="&#x417;" horiz-adv-x="1271" d="M59 430l220 12q29 -289 358 -288q154 0 237.5 63.5t83.5 183.5q0 242 -323 242h-172v172h162q145 0 219 60.5t74 171.5q0 113 -75 173t-206 60q-133 0 -223 -65.5t-105 -202.5l-219 18q25 215 168 321.5t379 106.5q225 0 367.5 -94t142.5 -281q0 -156 -105.5 -245 t-312.5 -101q211 -12 335 -103t124 -263q0 -193 -150.5 -294.5t-400.5 -101.5q-535 0 -578 455z" />
<glyph unicode="&#x418;" horiz-adv-x="1519" d="M168 0v1434h223v-1272l604 1272h357v-1434h-224v1272l-604 -1272h-356z" />
<glyph unicode="&#x419;" horiz-adv-x="1519" d="M168 0v1434h223v-1272l604 1272h357v-1434h-224v1272l-604 -1272h-356zM446 1823h146q6 -59 45 -102.5t123 -43.5q152 0 170 146h143q-4 -125 -83 -199t-230.5 -74t-230 74t-83.5 199z" />
<glyph unicode="&#x41a;" horiz-adv-x="1392" d="M168 0v1434h229v-621h193l452 621h267l-541 -695l584 -739h-273l-487 635h-195v-635h-229z" />
<glyph unicode="&#x41b;" horiz-adv-x="1452" d="M37 -2v184q49 -6 86 -6q31 0 55.5 17.5t42 57.5t29.5 86t21.5 122t14.5 145.5t9 177t6 195.5t6 221.5t8 235.5h969v-1434h-229v1245h-531q-2 -82 -8 -235q-6 -209 -10 -305.5t-17.5 -242t-35 -210t-57.5 -138t-91 -99t-133 -25.5q-68 0 -135 8z" />
<glyph unicode="&#x41c;" horiz-adv-x="1884" d="M168 0v1434h401l375 -1303l375 1303h397v-1434h-221l2 1305l-399 -1305h-312l-399 1300v-1300h-219z" />
<glyph unicode="&#x41d;" horiz-adv-x="1486" d="M168 0v1434h229v-611h693v611h229v-1434h-229v635h-693v-635h-229z" />
<glyph unicode="&#x41e;" horiz-adv-x="1490" d="M88 717q0 336 171 538.5t486.5 202.5t486.5 -202.5t171 -538.5t-171 -539t-486.5 -203t-486.5 203t-171 539zM317 717q0 -246 113 -400.5t315.5 -154.5t315.5 154.5t113 400.5t-113 400.5t-315.5 154.5t-315.5 -154.5t-113 -400.5z" />
<glyph unicode="&#x41f;" horiz-adv-x="1478" d="M168 0v1434h1143v-1434h-230v1245h-684v-1245h-229z" />
<glyph unicode="&#x420;" horiz-adv-x="1333" d="M168 0v1434h590q215 0 356 -108.5t141 -334t-137 -329t-354 -103.5h-367v-559h-229zM397 735h334q137 0 216 63.5t79 192.5q0 127 -79 190.5t-216 63.5h-334v-510z" />
<glyph unicode="&#x421;" horiz-adv-x="1390" d="M88 717q0 334 166 537.5t465 203.5q246 0 401.5 -130t184.5 -351l-218 -19q-20 141 -121.5 227.5t-246.5 86.5q-197 0 -299.5 -160t-102.5 -395q0 -242 111 -398.5t307 -156.5q156 0 252 95t115 241l219 -15q-29 -233 -179.5 -370.5t-406.5 -137.5q-309 0 -478 202 t-169 540z" />
<glyph unicode="&#x422;" horiz-adv-x="1220" d="M49 1245v189h1122v-189h-446v-1245h-229v1245h-447z" />
<glyph unicode="&#x423;" horiz-adv-x="1345" d="M43 1434h256l426 -926l336 926h252l-430 -1074q-82 -211 -173.5 -291.5t-236.5 -80.5q-92 0 -186 12v178q80 -8 139 -8q74 0 123 35t90 133l18 51h-100z" />
<glyph unicode="&#x424;" horiz-adv-x="1744" d="M82 751.5q0 280.5 174 431t473 150.5h33v125h221v-125h33q299 0 473 -150.5t174 -431t-174 -431t-473 -150.5h-33v-170h-221v170h-33q-299 0 -473 150.5t-174 431zM311 751.5q0 -194.5 117.5 -299t314.5 -104.5h19v807h-19q-197 0 -314.5 -104.5t-117.5 -299zM983 348h18 q197 0 315 104.5t118 299t-118 299t-315 104.5h-18v-807z" />
<glyph unicode="&#x425;" horiz-adv-x="1355" d="M49 0l496 729l-457 705h264l324 -525l325 525h254l-454 -695l502 -739h-267l-366 559l-369 -559h-252z" />
<glyph unicode="&#x426;" horiz-adv-x="1470" d="M168 0v1434h229v-1246h684v1246h230v-1246h129v-522h-213v334h-1059z" />
<glyph unicode="&#x427;" horiz-adv-x="1386" d="M121 985v449h229v-408q0 -162 75 -228.5t234 -66.5q172 0 330 62v641h230v-1434h-230v604q-197 -61 -397 -61q-471 0 -471 442z" />
<glyph unicode="&#x428;" horiz-adv-x="2045" d="M168 0v1434h223v-1246h520v1246h224v-1246h520v1246h223v-1434h-1710z" />
<glyph unicode="&#x429;" horiz-adv-x="2039" d="M168 0v1434h223v-1246h520v1246h224v-1246h520v1246h223v-1246h131v-522h-215v334h-1626z" />
<glyph unicode="&#x42a;" horiz-adv-x="1507" d="M43 1245v189h551v-564h348q217 0 357.5 -106.5t140.5 -327.5t-141.5 -328.5t-356.5 -107.5h-577v1245h-322zM594 188h321q137 0 216 62.5t79 185.5q0 125 -78.5 187.5t-216.5 62.5h-321v-498z" />
<glyph unicode="&#x42b;" horiz-adv-x="1787" d="M168 0v1434h229v-564h320q217 0 357 -106.5t140 -327.5t-141 -328.5t-356 -107.5h-549zM397 188h293q137 0 216 62.5t79 185.5q0 125 -79 187.5t-216 62.5h-293v-498zM1391 0v1434h229v-1434h-229z" />
<glyph unicode="&#x42c;" horiz-adv-x="1310" d="M168 0v1434h229v-564h348q217 0 357.5 -106.5t140.5 -327.5t-141 -328.5t-357 -107.5h-577zM397 188h322q137 0 216 62.5t79 185.5q0 125 -79 187.5t-216 62.5h-322v-498z" />
<glyph unicode="&#x42d;" horiz-adv-x="1396" d="M70 461l219 16q27 -139 124 -227t246 -88q182 0 291 134t125 347h-536v172h534q-20 201 -120.5 329t-276.5 128q-137 0 -240.5 -81t-130.5 -212l-219 18q39 213 195.5 337t394.5 124q301 0 467 -203.5t166 -537.5t-171 -538t-479 -204q-250 0 -402.5 131.5t-186.5 354.5z " />
<glyph unicode="&#x42e;" horiz-adv-x="2007" d="M168 0v1434h229v-611h248q25 295 186.5 465t448.5 170q313 0 476 -199.5t163 -541.5t-163 -542t-476 -200q-293 0 -455.5 176.5t-181.5 483.5h-246v-635h-229zM870 717q0 -252 105.5 -403.5t304.5 -151.5t304.5 151.5t105.5 403.5t-105.5 403.5t-304.5 151.5 t-304.5 -151.5t-105.5 -403.5z" />
<glyph unicode="&#x42f;" horiz-adv-x="1382" d="M51 0l406 584q-166 27 -266.5 129t-100.5 286q0 219 142.5 327t357.5 108h624v-1434h-229v575h-293l-366 -575h-275zM319 999.5q0 -122.5 80 -187t215 -64.5h371v501h-371q-135 0 -215 -63.5t-80 -186z" />
<glyph unicode="&#x430;" horiz-adv-x="1161" d="M82 285q0 295 432 336l303 28v82q0 94 -58.5 151.5t-174.5 57.5q-104 0 -172 -48t-74 -140h-201q6 178 129 262t318 84q219 0 335.5 -104.5t116.5 -307.5v-686h-202v209q-51 -111 -153.5 -172.5t-248.5 -61.5q-174 0 -262 86.5t-88 223.5zM299 295q0 -74 50 -120t151 -46 q145 0 231 91t86 235v57l-274 -27q-244 -24 -244 -190z" />
<glyph unicode="&#x431;" horiz-adv-x="1218" d="M90 664q0 348 100.5 535t325.5 239q35 8 287 43q152 23 229 51v-172q-59 -33 -205 -55q-41 -6 -104.5 -13.5t-97.5 -11.5q-80 -10 -137.5 -36.5t-110.5 -84t-86 -165t-45 -265.5q43 145 148 227t263 82q215 0 349.5 -144t134.5 -388q0 -246 -141.5 -388.5t-385.5 -142.5 q-524 0 -524 689zM307 506q0 -166 82 -262.5t225.5 -96.5t226.5 96.5t83 262.5t-83 263t-227 97q-141 0 -224 -97t-83 -263z" />
<glyph unicode="&#x432;" horiz-adv-x="1138" d="M135 0v1073h498q197 0 296 -74.5t99 -195.5q0 -209 -287 -248q322 -33 322 -262q0 -125 -95.5 -209t-308.5 -84h-524zM354 164h285q205 0 205 158q0 154 -215 153h-275v-311zM354 618h262q193 0 193 145.5t-203 145.5h-252v-291z" />
<glyph unicode="&#x433;" horiz-adv-x="933" d="M135 0v1073h746v-180h-527v-893h-219z" />
<glyph unicode="&#x434;" horiz-adv-x="1179" d="M25 180h81q33 72 53.5 214.5t29 264t24.5 414.5h799v-893h131v-467h-207v287h-705v-287h-206v467zM315 180h478v713h-392q-2 -33 -7 -100.5t-7 -95t-6 -84t-6 -82t-6 -69.5t-8.5 -68.5t-9.5 -59.5t-10 -57.5t-11 -48t-15 -48.5z" />
<glyph unicode="&#x435;" horiz-adv-x="1177" d="M78 537q0 276 143.5 418.5t380.5 142.5q502 0 502 -598v-27h-807q12 -166 97 -253t222 -87q195 0 265 166l209 -14q-43 -145 -165 -227.5t-309 -82.5q-248 0 -393 141.5t-145 420.5zM299 616h588q-6 152 -82 238t-203 86t-208 -82t-95 -242z" />
<glyph unicode="&#x436;" horiz-adv-x="1689" d="M20 0l443 559l-426 514h258l323 -444h121v444h211v-444h121l324 444h256l-426 -514l444 -559h-268l-336 457h-115v-457h-211v457h-114l-336 -457h-269z" />
<glyph unicode="&#x437;" horiz-adv-x="1089" d="M53 334l211 10q16 -201 279 -201q252 0 252 172q0 160 -271 160h-125v143h115q125 0 185.5 42t60.5 112q0 74 -58.5 116t-156.5 42q-102 0 -169 -47t-77 -144l-211 13q12 176 136 261t321 85q217 0 325.5 -77t108.5 -206q0 -217 -297 -260q332 -33 332 -270 q0 -137 -108.5 -223.5t-362.5 -86.5q-465 0 -490 359z" />
<glyph unicode="&#x438;" horiz-adv-x="1257" d="M135 0v1073h211v-913l451 913h325v-1073h-211v913l-450 -913h-326z" />
<glyph unicode="&#x439;" horiz-adv-x="1257" d="M135 0v1073h211v-913l451 913h325v-1073h-211v913l-450 -913h-326zM324 1499h145q6 -66 44 -114t116 -48q141 0 159 162h144q-4 -133 -80 -211t-223.5 -78t-224 78t-80.5 211z" />
<glyph unicode="&#x43a;" horiz-adv-x="1144" d="M135 0v1073h219v-444h131l351 444h260l-455 -512l483 -561h-272l-371 457h-127v-457h-219z" />
<glyph unicode="&#x43b;" horiz-adv-x="1177" d="M35 -6v176q23 -2 51 -2q86 0 119 215q14 102 41 604q2 45 4 86h792v-1073h-219v893h-381q-6 -76 -14 -211q-6 -115 -10 -167t-12.5 -137t-16.5 -123t-23.5 -94.5t-35 -80t-48 -50t-65.5 -35.5t-84 -9q-55 0 -98 8z" />
<glyph unicode="&#x43c;" horiz-adv-x="1599" d="M135 0v1073h365l303 -950l299 950h362v-1073h-209v922l-321 -922h-268l-320 922v-922h-211z" />
<glyph unicode="&#x43d;" horiz-adv-x="1220" d="M135 0v1073h219v-436h512v436h219v-1073h-219v457h-512v-457h-219z" />
<glyph unicode="&#x43e;" horiz-adv-x="1206" d="M78 536.5q0 260.5 142 411t382 150.5q242 0 384 -150.5t142 -411t-142 -411t-384 -150.5q-240 0 -382 150.5t-142 411zM295 536.5q0 -176.5 83 -283t224 -106.5t225 106.5t84 283t-84 283t-225 106.5t-224 -106.5t-83 -283z" />
<glyph unicode="&#x43f;" horiz-adv-x="1208" d="M135 0v1073h938v-1073h-219v893h-500v-893h-219z" />
<glyph unicode="&#x440;" horiz-adv-x="1239" d="M135 -410v1483h203v-215q51 115 149.5 177.5t221.5 62.5q201 0 326.5 -150.5t125.5 -411t-126 -411t-324 -150.5q-242 0 -357 215v-600h-219zM344 536.5q0 -176.5 81 -283t218 -106.5q139 0 220 106.5t81 283t-81 283t-220 106.5q-137 0 -218 -106.5t-81 -283z" />
<glyph unicode="&#x441;" horiz-adv-x="1142" d="M78 537q0 268 137 414.5t373 146.5q193 0 323.5 -101.5t155.5 -285.5l-211 -19q-20 115 -93 174.5t-175 59.5q-133 0 -213 -102.5t-80 -287t81 -287t218 -102.5q109 0 181.5 62.5t92.5 181.5l211 -16q-25 -190 -156.5 -295t-328.5 -105q-240 0 -378 146t-138 416z" />
<glyph unicode="&#x442;" horiz-adv-x="1030" d="M45 893v180h940v-180h-360v-893h-219v893h-361z" />
<glyph unicode="&#x443;" horiz-adv-x="1146" d="M37 1073h235l332 -985l273 985h233l-381 -1182q-53 -186 -137 -255.5t-254 -69.5q-63 0 -131 8v168q82 -4 117 -4q86 0 131 38t75 144l25 80h-127z" />
<glyph unicode="&#x444;" horiz-adv-x="1536" d="M82 536.5q0 262.5 149.5 412t417.5 149.5h15v409h213v-409h12q268 0 416.5 -149.5t148.5 -412t-148.5 -412t-416.5 -149.5h-12v-385h-213v385h-15q-268 0 -417.5 149.5t-149.5 412zM295 536.5q0 -182.5 97 -286t263 -103.5h9v779h-9q-166 0 -263 -103.5t-97 -286z M877 147h6q166 0 261 103.5t95 286t-95 286t-261 103.5h-6v-779z" />
<glyph unicode="&#x445;" horiz-adv-x="1163" d="M43 0l408 543l-390 530h265l256 -379l258 379h252l-383 -524l411 -549h-262l-283 393l-280 -393h-252z" />
<glyph unicode="&#x446;" horiz-adv-x="1241" d="M135 0v1073h219v-893h500v893h219v-893h129v-467h-207v287h-860z" />
<glyph unicode="&#x447;" horiz-adv-x="1155" d="M98 764v309h219v-282q0 -121 54.5 -171.5t177.5 -50.5q106 0 252 41v463h219v-1073h-219v430q-186 -41 -328 -41q-375 0 -375 375z" />
<glyph unicode="&#x448;" horiz-adv-x="1773" d="M135 0v1073h215v-893h428v893h215v-893h430v893h215v-1073h-1503z" />
<glyph unicode="&#x449;" horiz-adv-x="1806" d="M135 0v1073h215v-893h428v893h215v-893h430v893h215v-893h129v-467h-206v287h-1426z" />
<glyph unicode="&#x44a;" horiz-adv-x="1273" d="M45 893v180h469v-395h264q426 0 426 -338q0 -340 -426 -340h-381h-102v893h-250zM514 168h248q223 0 223 174q0 172 -223 172h-248v-346z" />
<glyph unicode="&#x44b;" horiz-adv-x="1533" d="M135 0v1073h219v-395h240q426 0 426 -338q0 -340 -426 -340h-356h-103zM354 168h224q223 0 223 174q0 172 -223 172h-224v-346zM1180 0v1073h219v-1073h-219z" />
<glyph unicode="&#x44c;" horiz-adv-x="1114" d="M135 0v1073h219v-395h264q426 0 426 -338q0 -340 -426 -340h-380h-103zM354 168h248q223 0 223 174q0 172 -223 172h-248v-346z" />
<glyph unicode="&#x44d;" horiz-adv-x="1138" d="M63 354l213 13q25 -106 96.5 -166t172.5 -60q125 0 203.5 87t93.5 245h-389v148h387q-16 147 -93 229t-196 82q-96 0 -168 -55.5t-96 -159.5l-211 14q29 174 159 270.5t316 96.5q236 0 373 -146.5t137 -414.5q0 -270 -138.5 -416t-377.5 -146q-190 0 -320.5 98.5 t-161.5 280.5z" />
<glyph unicode="&#x44e;" horiz-adv-x="1652" d="M135 0v1073h219v-436h203q27 219 160 340t346 121q238 0 375 -147.5t137 -414t-137.5 -414t-374.5 -147.5q-219 0 -353.5 126t-154.5 356h-201v-457h-219zM768 536.5q0 -182.5 80 -286t215 -103.5t215 103.5t80 286t-80 286t-215 103.5t-215 -103.5t-80 -286z" />
<glyph unicode="&#x44f;" horiz-adv-x="1142" d="M57 0l316 438q-279 51 -279 312q0 156 106.5 239.5t307.5 83.5h500v-1073h-222v428h-198l-273 -428h-258zM313 737q0 -80 57.5 -124t164.5 -44h251v336h-251q-106 0 -164 -44t-58 -124z" />
<glyph unicode="&#x451;" horiz-adv-x="1177" d="M78 537q0 276 143.5 418.5t380.5 142.5q502 0 502 -598v-27h-807q12 -166 97 -253t222 -87q195 0 265 166l209 -14q-43 -145 -165 -227.5t-309 -82.5q-248 0 -393 141.5t-145 420.5zM299 616h588q-6 152 -82 238t-203 86t-208 -82t-95 -242zM301 1239v227h199v-227h-199z M668 1239v227h196v-227h-196z" />
<glyph unicode="&#x454;" horiz-adv-x="1138" d="M78 537q0 268 137 414.5t373 146.5q186 0 316 -96.5t159 -270.5l-211 -14q-25 104 -96.5 159.5t-167.5 55.5q-117 0 -194 -82t-95 -229h387v-148h-389q14 -158 93 -245t204 -87q102 0 172.5 60t95.5 166l213 -13q-31 -182 -160 -280.5t-321 -98.5q-240 0 -378 145.5 t-138 416.5z" />
<glyph unicode="&#x456;" horiz-adv-x="495" d="M131 1239v244h231v-244h-231zM137 0v1073h219v-1073h-219z" />
<glyph unicode="&#x457;" horiz-adv-x="483" d="M-10 1239v227h186v-227h-186zM131 0v1073h219v-1073h-219zM307 1239v227h187v-227h-187z" />
<glyph unicode="&#x45e;" horiz-adv-x="1146" d="M37 1073h235l332 -985l273 985h233l-381 -1182q-53 -186 -137 -255.5t-254 -69.5q-63 0 -131 8v168q82 -4 117 -4q86 0 131 38t75 144l25 80h-127zM268 1499h146q14 -162 159 -162q141 0 160 162h144q-4 -133 -80 -211t-223.5 -78t-224.5 78t-81 211z" />
<glyph unicode="&#x490;" horiz-adv-x="1155" d="M168 0v1434h702v344h215v-533h-688v-1245h-229z" />
<glyph unicode="&#x491;" horiz-adv-x="942" d="M135 0v1073h539v297h207v-477h-527v-893h-219z" />
<glyph unicode="&#x4c1;" horiz-adv-x="2093" d="M41 0l545 739l-525 695h265l438 -621h170v621h223v-621h172l438 621h265l-525 -695l545 -739h-270l-455 635h-170v-635h-223v635h-168l-455 -635h-270zM733 1823h146q6 -59 45 -102.5t123 -43.5q152 0 170 146h143q-4 -125 -83 -199t-230.5 -74t-230.5 74t-83 199z" />
<glyph unicode="&#x4c2;" horiz-adv-x="1689" d="M20 0l443 559l-426 514h258l323 -444h121v444h211v-444h121l324 444h256l-426 -514l444 -559h-268l-336 457h-115v-457h-211v457h-114l-336 -457h-269zM541 1499h145q6 -68 43 -115t115 -47q145 0 160 162h145q-4 -133 -81 -211t-224.5 -78t-223 78t-79.5 211z" />
<glyph unicode="&#x2000;" horiz-adv-x="963" />
<glyph unicode="&#x2001;" horiz-adv-x="1927" />
<glyph unicode="&#x2002;" horiz-adv-x="963" />
<glyph unicode="&#x2003;" horiz-adv-x="1927" />
<glyph unicode="&#x2004;" horiz-adv-x="642" />
<glyph unicode="&#x2005;" horiz-adv-x="481" />
<glyph unicode="&#x2006;" horiz-adv-x="321" />
<glyph unicode="&#x2007;" horiz-adv-x="321" />
<glyph unicode="&#x2008;" horiz-adv-x="240" />
<glyph unicode="&#x2009;" horiz-adv-x="385" />
<glyph unicode="&#x200a;" horiz-adv-x="107" />
<glyph unicode="&#x2010;" horiz-adv-x="765" d="M113 526v170h540v-170h-540z" />
<glyph unicode="&#x2011;" horiz-adv-x="765" d="M113 526v170h540v-170h-540z" />
<glyph unicode="&#x2012;" horiz-adv-x="765" d="M113 526v170h540v-170h-540z" />
<glyph unicode="&#x2013;" horiz-adv-x="1132" d="M113 526v170h907v-170h-907z" />
<glyph unicode="&#x2014;" horiz-adv-x="1396" d="M113 526v170h1171v-170h-1171z" />
<glyph unicode="&#x2018;" horiz-adv-x="436" d="M100 995v152l121 311h94v-463h-215z" />
<glyph unicode="&#x2019;" horiz-adv-x="436" d="M121 971v463h215v-152l-121 -311h-94z" />
<glyph unicode="&#x201a;" horiz-adv-x="436" d="M121 -197v463h215v-151l-121 -312h-94z" />
<glyph unicode="&#x201c;" horiz-adv-x="778" d="M100 995v152l121 311h94v-463h-215zM442 995v152l121 311h94v-463h-215z" />
<glyph unicode="&#x201d;" horiz-adv-x="778" d="M121 971v463h215v-152l-121 -311h-94zM463 971v463h215v-152l-121 -311h-94z" />
<glyph unicode="&#x201e;" horiz-adv-x="778" d="M121 -197v463h215v-151l-121 -312h-94zM463 -197v463h215v-151l-121 -312h-94z" />
<glyph unicode="&#x2020;" horiz-adv-x="890" d="M98 911v162h246v361h205v-361h246v-162h-246v-1030h-205v1030h-246z" />
<glyph unicode="&#x2021;" horiz-adv-x="907" d="M106 262v162h246v487h-246v162h246v361h205v-361h246v-162h-246v-487h246v-162h-246v-381h-205v381h-246z" />
<glyph unicode="&#x2022;" horiz-adv-x="808" d="M170 645q0 100 65.5 166t167.5 63q100 2 168 -63.5t68 -165.5t-66.5 -165.5t-169 -65.5t-168 64.5t-65.5 166.5z" />
<glyph unicode="&#x2026;" horiz-adv-x="1396" d="M129 0v266h248v-266h-248zM573 0v266h248v-266h-248zM1020 0v266h248v-266h-248z" />
<glyph unicode="&#x202f;" horiz-adv-x="385" />
<glyph unicode="&#x2039;" horiz-adv-x="610" d="M59 526v95l254 319h213l-295 -367l295 -366h-213z" />
<glyph unicode="&#x203a;" horiz-adv-x="610" d="M84 207l297 366l-297 367h213l254 -319v-95l-254 -319h-213z" />
<glyph unicode="&#x205f;" horiz-adv-x="481" />
<glyph unicode="&#x20ac;" horiz-adv-x="1341" d="M18 528v111h121q-2 20 -2 65.5t2 65.5h-114v111h125q39 254 188 403.5t387 149.5q211 0 351.5 -107.5t183.5 -298.5l-209 -12q-33 109 -118 173t-200 64q-143 0 -234 -102t-124 -270h518v-111h-533q0 -10 -1 -31.5t-1 -34t1 -34t1 -31.5h525v-111h-508q33 -170 129 -271 t242 -101q129 0 213.5 78.5t111.5 205.5l207 -8q-37 -209 -175 -333t-364 -124q-244 0 -397.5 149.5t-193.5 403.5h-132z" />
<glyph unicode="&#x2122;" horiz-adv-x="1656" d="M33 1335v99h590v-99h-234v-657h-121v657h-235zM739 678v756h211l197 -684l196 684h209v-756h-118v676l-205 -676h-168l-203 670v-670h-119z" />
<glyph unicode="&#x25ca;" horiz-adv-x="1028" d="M70 717l331 717h226l331 -717l-331 -717h-226zM252 717l262 -592l264 592l-264 592z" />
<glyph unicode="&#x25fc;" horiz-adv-x="1075" d="M0 0v1075h1075v-1075h-1075z" />
</font>
</defs>
</svg>
